STARTFONT 2.1
FONT psf
SIZE 16 75 75
FONTBOUNDINGBOX 8 16 0 -4
STARTPROPERTIES 3
FONT_DESCENT 4
FONT_ASCENT 12
DEFAULT_CHAR 255
ENDPROPERTIES
CHARS 512
STARTCHAR C0000
ENCODING 0
SWIDTH 666 0
DWIDTH 8 0
BBX 8 16 0 -4
BITMAP
00
00
00
00
00
00
42
24
18
24
18
24
42
00
00
00
ENDCHAR
STARTCHAR C0001
ENCODING 1
SWIDTH 666 0
DWIDTH 8 0
BBX 8 16 0 -4
BITMAP
00
00
00
00
3c
42
81
a5
81
a5
99
42
3c
00
00
00
ENDCHAR
STARTCHAR C0002
ENCODING 2
SWIDTH 666 0
DWIDTH 8 0
BBX 8 16 0 -4
BITMAP
00
00
08
08
08
08
08
00
00
08
08
08
08
08
00
00
ENDCHAR
STARTCHAR C0003
ENCODING 3
SWIDTH 666 0
DWIDTH 8 0
BBX 8 16 0 -4
BITMAP
00
24
00
00
00
00
00
00
00
00
00
00
00
00
00
00
ENDCHAR
STARTCHAR C0004
ENCODING 4
SWIDTH 666 0
DWIDTH 8 0
BBX 8 16 0 -4
BITMAP
00
00
00
00
00
08
1c
3e
7f
3e
1c
08
00
00
00
00
ENDCHAR
STARTCHAR C0005
ENCODING 5
SWIDTH 666 0
DWIDTH 8 0
BBX 8 16 0 -4
BITMAP
00
00
00
00
1c
22
49
55
51
51
55
49
22
1c
00
00
ENDCHAR
STARTCHAR C0006
ENCODING 6
SWIDTH 666 0
DWIDTH 8 0
BBX 8 16 0 -4
BITMAP
00
00
00
00
7c
82
ba
aa
ba
a2
b2
aa
82
7c
00
00
ENDCHAR
STARTCHAR C0007
ENCODING 7
SWIDTH 666 0
DWIDTH 8 0
BBX 8 16 0 -4
BITMAP
00
00
00
00
00
00
00
38
7c
7c
7c
38
00
00
00
00
ENDCHAR
STARTCHAR C0008
ENCODING 8
SWIDTH 666 0
DWIDTH 8 0
BBX 8 16 0 -4
BITMAP
00
00
00
00
7e
00
00
00
00
00
00
00
00
00
00
00
ENDCHAR
STARTCHAR C0009
ENCODING 9
SWIDTH 666 0
DWIDTH 8 0
BBX 8 16 0 -4
BITMAP
00
00
00
00
00
00
00
00
38
44
82
82
82
44
38
00
ENDCHAR
STARTCHAR C000a
ENCODING 10
SWIDTH 666 0
DWIDTH 8 0
BBX 8 16 0 -4
BITMAP
00
00
00
3c
04
18
04
24
18
00
00
00
00
00
00
00
ENDCHAR
STARTCHAR C000b
ENCODING 11
SWIDTH 666 0
DWIDTH 8 0
BBX 8 16 0 -4
BITMAP
00
00
00
04
08
10
00
00
00
00
00
00
00
00
00
00
ENDCHAR
STARTCHAR C000c
ENCODING 12
SWIDTH 666 0
DWIDTH 8 0
BBX 8 16 0 -4
BITMAP
00
00
00
00
00
00
00
00
00
00
00
04
04
04
18
00
ENDCHAR
STARTCHAR C000d
ENCODING 13
SWIDTH 666 0
DWIDTH 8 0
BBX 8 16 0 -4
BITMAP
00
00
00
04
0c
04
04
04
04
00
00
00
00
00
00
00
ENDCHAR
STARTCHAR C000e
ENCODING 14
SWIDTH 666 0
DWIDTH 8 0
BBX 8 16 0 -4
BITMAP
00
00
00
70
08
71
0a
74
08
12
26
4a
12
3f
02
00
ENDCHAR
STARTCHAR C000f
ENCODING 15
SWIDTH 666 0
DWIDTH 8 0
BBX 8 16 0 -4
BITMAP
00
00
10
08
04
18
24
42
42
42
7e
42
42
42
00
00
ENDCHAR
STARTCHAR C0010
ENCODING 16
SWIDTH 666 0
DWIDTH 8 0
BBX 8 16 0 -4
BITMAP
00
00
08
10
20
18
24
42
42
42
7e
42
42
42
00
00
ENDCHAR
STARTCHAR C0011
ENCODING 17
SWIDTH 666 0
DWIDTH 8 0
BBX 8 16 0 -4
BITMAP
00
00
18
24
00
18
24
42
42
42
7e
42
42
42
00
00
ENDCHAR
STARTCHAR C0012
ENCODING 18
SWIDTH 666 0
DWIDTH 8 0
BBX 8 16 0 -4
BITMAP
00
00
08
1c
2a
08
08
08
08
08
08
2a
1c
08
00
00
ENDCHAR
STARTCHAR C0013
ENCODING 19
SWIDTH 666 0
DWIDTH 8 0
BBX 8 16 0 -4
BITMAP
00
00
32
4c
00
18
24
42
42
42
7e
42
42
42
00
00
ENDCHAR
STARTCHAR C0014
ENCODING 20
SWIDTH 666 0
DWIDTH 8 0
BBX 8 16 0 -4
BITMAP
00
00
00
00
3e
7a
7a
7a
3a
0a
0a
0a
0a
0a
00
00
ENDCHAR
STARTCHAR C0015
ENCODING 21
SWIDTH 666 0
DWIDTH 8 0
BBX 8 16 0 -4
BITMAP
00
00
1c
20
20
50
48
44
22
12
0a
04
04
38
00
00
ENDCHAR
STARTCHAR C0016
ENCODING 22
SWIDTH 666 0
DWIDTH 8 0
BBX 8 16 0 -4
BITMAP
00
00
20
10
08
7e
40
40
40
7c
40
40
40
7e
00
00
ENDCHAR
STARTCHAR C0017
ENCODING 23
SWIDTH 666 0
DWIDTH 8 0
BBX 8 16 0 -4
BITMAP
00
00
18
24
00
7e
40
40
40
7c
40
40
40
7e
00
00
ENDCHAR
STARTCHAR C0018
ENCODING 24
SWIDTH 666 0
DWIDTH 8 0
BBX 8 16 0 -4
BITMAP
00
00
08
1c
2a
08
08
08
08
08
08
08
08
08
08
08
ENDCHAR
STARTCHAR C0019
ENCODING 25
SWIDTH 666 0
DWIDTH 8 0
BBX 8 16 0 -4
BITMAP
08
08
08
08
08
08
08
08
08
08
08
2a
1c
08
00
00
ENDCHAR
STARTCHAR C001a
ENCODING 26
SWIDTH 666 0
DWIDTH 8 0
BBX 8 16 0 -4
BITMAP
00
00
00
00
00
00
00
08
04
fe
04
08
00
00
00
00
ENDCHAR
STARTCHAR C001b
ENCODING 27
SWIDTH 666 0
DWIDTH 8 0
BBX 8 16 0 -4
BITMAP
00
00
00
00
00
00
00
10
20
7f
20
10
00
00
00
00
ENDCHAR
STARTCHAR C001c
ENCODING 28
SWIDTH 666 0
DWIDTH 8 0
BBX 8 16 0 -4
BITMAP
00
00
00
24
00
7e
40
40
40
7c
40
40
40
7e
00
00
ENDCHAR
STARTCHAR C001d
ENCODING 29
SWIDTH 666 0
DWIDTH 8 0
BBX 8 16 0 -4
BITMAP
00
00
00
00
00
00
00
24
42
ff
42
24
00
00
00
00
ENDCHAR
STARTCHAR C001e
ENCODING 30
SWIDTH 666 0
DWIDTH 8 0
BBX 8 16 0 -4
BITMAP
00
00
00
00
00
18
18
3c
3c
7e
7e
00
00
00
00
00
ENDCHAR
STARTCHAR C001f
ENCODING 31
SWIDTH 666 0
DWIDTH 8 0
BBX 8 16 0 -4
BITMAP
00
00
00
00
00
7e
7e
3c
3c
18
18
00
00
00
00
00
ENDCHAR
STARTCHAR C0020
ENCODING 32
SWIDTH 666 0
DWIDTH 8 0
BBX 8 16 0 -4
BITMAP
00
00
00
00
00
00
00
00
00
00
00
00
00
00
00
00
ENDCHAR
STARTCHAR C0021
ENCODING 33
SWIDTH 666 0
DWIDTH 8 0
BBX 8 16 0 -4
BITMAP
00
00
00
00
08
08
08
08
08
08
08
00
00
08
00
00
ENDCHAR
STARTCHAR C0022
ENCODING 34
SWIDTH 666 0
DWIDTH 8 0
BBX 8 16 0 -4
BITMAP
00
00
00
00
12
12
12
00
00
00
00
00
00
00
00
00
ENDCHAR
STARTCHAR C0023
ENCODING 35
SWIDTH 666 0
DWIDTH 8 0
BBX 8 16 0 -4
BITMAP
00
00
00
00
00
12
3f
12
12
3f
12
00
00
00
00
00
ENDCHAR
STARTCHAR C0024
ENCODING 36
SWIDTH 666 0
DWIDTH 8 0
BBX 8 16 0 -4
BITMAP
00
00
00
00
08
08
3c
4a
48
3c
0a
4a
3c
08
08
00
ENDCHAR
STARTCHAR C0025
ENCODING 37
SWIDTH 666 0
DWIDTH 8 0
BBX 8 16 0 -4
BITMAP
00
00
00
00
20
50
21
02
04
08
10
20
42
05
02
00
ENDCHAR
STARTCHAR C0026
ENCODING 38
SWIDTH 666 0
DWIDTH 8 0
BBX 8 16 0 -4
BITMAP
00
00
00
00
00
30
48
48
48
30
50
4a
44
3a
01
00
ENDCHAR
STARTCHAR C0027
ENCODING 39
SWIDTH 666 0
DWIDTH 8 0
BBX 8 16 0 -4
BITMAP
00
00
00
00
10
10
10
00
00
00
00
00
00
00
00
00
ENDCHAR
STARTCHAR C0028
ENCODING 40
SWIDTH 666 0
DWIDTH 8 0
BBX 8 16 0 -4
BITMAP
00
00
00
00
00
04
08
10
10
10
10
10
08
04
00
00
ENDCHAR
STARTCHAR C0029
ENCODING 41
SWIDTH 666 0
DWIDTH 8 0
BBX 8 16 0 -4
BITMAP
00
00
00
00
00
20
10
08
08
08
08
08
10
20
00
00
ENDCHAR
STARTCHAR C002a
ENCODING 42
SWIDTH 666 0
DWIDTH 8 0
BBX 8 16 0 -4
BITMAP
00
00
00
00
00
08
49
2a
14
2a
49
08
00
00
00
00
ENDCHAR
STARTCHAR C002b
ENCODING 43
SWIDTH 666 0
DWIDTH 8 0
BBX 8 16 0 -4
BITMAP
00
00
00
00
00
00
08
08
08
7f
08
08
08
00
00
00
ENDCHAR
STARTCHAR C002c
ENCODING 44
SWIDTH 666 0
DWIDTH 8 0
BBX 8 16 0 -4
BITMAP
00
00
00
00
00
00
00
00
00
00
00
00
18
18
30
60
ENDCHAR
STARTCHAR C002d
ENCODING 45
SWIDTH 666 0
DWIDTH 8 0
BBX 8 16 0 -4
BITMAP
00
00
00
00
00
00
00
00
00
7e
00
00
00
00
00
00
ENDCHAR
STARTCHAR C002e
ENCODING 46
SWIDTH 666 0
DWIDTH 8 0
BBX 8 16 0 -4
BITMAP
00
00
00
00
00
00
00
00
00
00
00
00
18
18
00
00
ENDCHAR
STARTCHAR C002f
ENCODING 47
SWIDTH 666 0
DWIDTH 8 0
BBX 8 16 0 -4
BITMAP
00
00
00
00
00
00
00
01
02
04
08
10
20
40
00
00
ENDCHAR
STARTCHAR C0030
ENCODING 48
SWIDTH 666 0
DWIDTH 8 0
BBX 8 16 0 -4
BITMAP
00
00
00
00
18
24
42
42
4a
52
42
42
24
18
00
00
ENDCHAR
STARTCHAR C0031
ENCODING 49
SWIDTH 666 0
DWIDTH 8 0
BBX 8 16 0 -4
BITMAP
00
00
00
00
08
18
28
08
08
08
08
08
08
08
00
00
ENDCHAR
STARTCHAR C0032
ENCODING 50
SWIDTH 666 0
DWIDTH 8 0
BBX 8 16 0 -4
BITMAP
00
00
00
00
3c
42
42
02
04
08
10
20
40
7e
00
00
ENDCHAR
STARTCHAR C0033
ENCODING 51
SWIDTH 666 0
DWIDTH 8 0
BBX 8 16 0 -4
BITMAP
00
00
00
00
7e
02
04
08
1c
02
02
02
42
3c
00
00
ENDCHAR
STARTCHAR C0034
ENCODING 52
SWIDTH 666 0
DWIDTH 8 0
BBX 8 16 0 -4
BITMAP
00
00
00
00
06
0a
12
22
42
42
7e
02
02
02
00
00
ENDCHAR
STARTCHAR C0035
ENCODING 53
SWIDTH 666 0
DWIDTH 8 0
BBX 8 16 0 -4
BITMAP
00
00
00
00
7e
40
40
40
7c
02
02
02
42
3c
00
00
ENDCHAR
STARTCHAR C0036
ENCODING 54
SWIDTH 666 0
DWIDTH 8 0
BBX 8 16 0 -4
BITMAP
00
00
00
00
3c
42
40
40
7c
42
42
42
42
3c
00
00
ENDCHAR
STARTCHAR C0037
ENCODING 55
SWIDTH 666 0
DWIDTH 8 0
BBX 8 16 0 -4
BITMAP
00
00
00
00
7e
02
04
04
08
08
10
10
20
20
00
00
ENDCHAR
STARTCHAR C0038
ENCODING 56
SWIDTH 666 0
DWIDTH 8 0
BBX 8 16 0 -4
BITMAP
00
00
00
00
3c
42
42
42
3c
24
42
42
42
3c
00
00
ENDCHAR
STARTCHAR C0039
ENCODING 57
SWIDTH 666 0
DWIDTH 8 0
BBX 8 16 0 -4
BITMAP
00
00
00
00
3c
42
42
42
42
3e
02
02
42
3c
00
00
ENDCHAR
STARTCHAR C003a
ENCODING 58
SWIDTH 666 0
DWIDTH 8 0
BBX 8 16 0 -4
BITMAP
00
00
00
00
00
00
00
00
18
18
00
00
18
18
00
00
ENDCHAR
STARTCHAR C003b
ENCODING 59
SWIDTH 666 0
DWIDTH 8 0
BBX 8 16 0 -4
BITMAP
00
00
00
00
00
00
00
00
18
18
00
00
18
18
30
60
ENDCHAR
STARTCHAR C003c
ENCODING 60
SWIDTH 666 0
DWIDTH 8 0
BBX 8 16 0 -4
BITMAP
00
00
00
00
00
02
04
08
10
20
10
08
04
02
00
00
ENDCHAR
STARTCHAR C003d
ENCODING 61
SWIDTH 666 0
DWIDTH 8 0
BBX 8 16 0 -4
BITMAP
00
00
00
00
00
00
00
7e
00
00
7e
00
00
00
00
00
ENDCHAR
STARTCHAR C003e
ENCODING 62
SWIDTH 666 0
DWIDTH 8 0
BBX 8 16 0 -4
BITMAP
00
00
00
00
00
40
20
10
08
04
08
10
20
40
00
00
ENDCHAR
STARTCHAR C003f
ENCODING 63
SWIDTH 666 0
DWIDTH 8 0
BBX 8 16 0 -4
BITMAP
00
00
00
00
1c
22
22
04
08
08
08
00
00
08
00
00
ENDCHAR
STARTCHAR C0040
ENCODING 64
SWIDTH 666 0
DWIDTH 8 0
BBX 8 16 0 -4
BITMAP
00
00
00
00
3c
42
42
5e
52
52
52
4c
40
3e
00
00
ENDCHAR
STARTCHAR C0041
ENCODING 65
SWIDTH 666 0
DWIDTH 8 0
BBX 8 16 0 -4
BITMAP
00
00
00
00
00
18
24
42
42
42
7e
42
42
42
00
00
ENDCHAR
STARTCHAR C0042
ENCODING 66
SWIDTH 666 0
DWIDTH 8 0
BBX 8 16 0 -4
BITMAP
00
00
00
00
00
7c
42
42
42
7c
42
42
42
7c
00
00
ENDCHAR
STARTCHAR C0043
ENCODING 67
SWIDTH 666 0
DWIDTH 8 0
BBX 8 16 0 -4
BITMAP
00
00
00
00
00
3c
42
40
40
40
40
40
42
3c
00
00
ENDCHAR
STARTCHAR C0044
ENCODING 68
SWIDTH 666 0
DWIDTH 8 0
BBX 8 16 0 -4
BITMAP
00
00
00
00
00
f8
44
42
42
42
42
42
44
f8
00
00
ENDCHAR
STARTCHAR C0045
ENCODING 69
SWIDTH 666 0
DWIDTH 8 0
BBX 8 16 0 -4
BITMAP
00
00
00
00
00
7e
40
40
40
7c
40
40
40
7e
00
00
ENDCHAR
STARTCHAR C0046
ENCODING 70
SWIDTH 666 0
DWIDTH 8 0
BBX 8 16 0 -4
BITMAP
00
00
00
00
00
7e
40
40
40
7c
40
40
40
40
00
00
ENDCHAR
STARTCHAR C0047
ENCODING 71
SWIDTH 666 0
DWIDTH 8 0
BBX 8 16 0 -4
BITMAP
00
00
00
00
00
3c
42
40
40
40
4f
42
42
3c
00
00
ENDCHAR
STARTCHAR C0048
ENCODING 72
SWIDTH 666 0
DWIDTH 8 0
BBX 8 16 0 -4
BITMAP
00
00
00
00
00
42
42
42
42
7e
42
42
42
42
00
00
ENDCHAR
STARTCHAR C0049
ENCODING 73
SWIDTH 666 0
DWIDTH 8 0
BBX 8 16 0 -4
BITMAP
00
00
00
00
00
1c
08
08
08
08
08
08
08
1c
00
00
ENDCHAR
STARTCHAR C004a
ENCODING 74
SWIDTH 666 0
DWIDTH 8 0
BBX 8 16 0 -4
BITMAP
00
00
00
00
00
0e
04
04
04
04
04
24
24
18
00
00
ENDCHAR
STARTCHAR C004b
ENCODING 75
SWIDTH 666 0
DWIDTH 8 0
BBX 8 16 0 -4
BITMAP
00
00
00
00
00
42
44
48
50
60
50
48
44
42
00
00
ENDCHAR
STARTCHAR C004c
ENCODING 76
SWIDTH 666 0
DWIDTH 8 0
BBX 8 16 0 -4
BITMAP
00
00
00
00
00
40
40
40
40
40
40
40
40
7e
00
00
ENDCHAR
STARTCHAR C004d
ENCODING 77
SWIDTH 666 0
DWIDTH 8 0
BBX 8 16 0 -4
BITMAP
00
00
00
00
00
42
66
5a
5a
42
42
42
42
42
00
00
ENDCHAR
STARTCHAR C004e
ENCODING 78
SWIDTH 666 0
DWIDTH 8 0
BBX 8 16 0 -4
BITMAP
00
00
00
00
00
42
42
62
52
4a
46
42
42
42
00
00
ENDCHAR
STARTCHAR C004f
ENCODING 79
SWIDTH 666 0
DWIDTH 8 0
BBX 8 16 0 -4
BITMAP
00
00
00
00
00
3c
42
42
42
42
42
42
42
3c
00
00
ENDCHAR
STARTCHAR C0050
ENCODING 80
SWIDTH 666 0
DWIDTH 8 0
BBX 8 16 0 -4
BITMAP
00
00
00
00
00
7c
42
42
42
7c
40
40
40
40
00
00
ENDCHAR
STARTCHAR C0051
ENCODING 81
SWIDTH 666 0
DWIDTH 8 0
BBX 8 16 0 -4
BITMAP
00
00
00
00
00
3c
42
42
42
42
42
52
4a
3c
02
00
ENDCHAR
STARTCHAR C0052
ENCODING 82
SWIDTH 666 0
DWIDTH 8 0
BBX 8 16 0 -4
BITMAP
00
00
00
00
00
7c
42
42
42
7c
50
48
44
42
00
00
ENDCHAR
STARTCHAR C0053
ENCODING 83
SWIDTH 666 0
DWIDTH 8 0
BBX 8 16 0 -4
BITMAP
00
00
00
00
00
3c
42
40
40
3c
02
02
42
3c
00
00
ENDCHAR
STARTCHAR C0054
ENCODING 84
SWIDTH 666 0
DWIDTH 8 0
BBX 8 16 0 -4
BITMAP
00
00
00
00
00
7f
08
08
08
08
08
08
08
08
00
00
ENDCHAR
STARTCHAR C0055
ENCODING 85
SWIDTH 666 0
DWIDTH 8 0
BBX 8 16 0 -4
BITMAP
00
00
00
00
00
42
42
42
42
42
42
42
42
3c
00
00
ENDCHAR
STARTCHAR C0056
ENCODING 86
SWIDTH 666 0
DWIDTH 8 0
BBX 8 16 0 -4
BITMAP
00
00
00
00
00
42
42
42
42
42
24
24
18
18
00
00
ENDCHAR
STARTCHAR C0057
ENCODING 87
SWIDTH 666 0
DWIDTH 8 0
BBX 8 16 0 -4
BITMAP
00
00
00
00
00
42
42
42
42
42
5a
5a
24
24
00
00
ENDCHAR
STARTCHAR C0058
ENCODING 88
SWIDTH 666 0
DWIDTH 8 0
BBX 8 16 0 -4
BITMAP
00
00
00
00
00
42
42
24
18
18
24
42
42
42
00
00
ENDCHAR
STARTCHAR C0059
ENCODING 89
SWIDTH 666 0
DWIDTH 8 0
BBX 8 16 0 -4
BITMAP
00
00
00
00
00
41
41
41
22
14
08
08
08
08
00
00
ENDCHAR
STARTCHAR C005a
ENCODING 90
SWIDTH 666 0
DWIDTH 8 0
BBX 8 16 0 -4
BITMAP
00
00
00
00
00
7f
01
02
04
08
10
20
40
7f
00
00
ENDCHAR
STARTCHAR C005b
ENCODING 91
SWIDTH 666 0
DWIDTH 8 0
BBX 8 16 0 -4
BITMAP
00
00
00
00
0e
08
08
08
08
08
08
08
08
08
0e
00
ENDCHAR
STARTCHAR C005c
ENCODING 92
SWIDTH 666 0
DWIDTH 8 0
BBX 8 16 0 -4
BITMAP
00
00
00
00
00
00
40
20
10
08
04
02
01
00
00
00
ENDCHAR
STARTCHAR C005d
ENCODING 93
SWIDTH 666 0
DWIDTH 8 0
BBX 8 16 0 -4
BITMAP
00
00
00
00
38
08
08
08
08
08
08
08
08
08
38
00
ENDCHAR
STARTCHAR C005e
ENCODING 94
SWIDTH 666 0
DWIDTH 8 0
BBX 8 16 0 -4
BITMAP
00
00
00
00
08
14
22
00
00
00
00
00
00
00
00
00
ENDCHAR
STARTCHAR C005f
ENCODING 95
SWIDTH 666 0
DWIDTH 8 0
BBX 8 16 0 -4
BITMAP
00
00
00
00
00
00
00
00
00
00
00
00
00
00
7f
00
ENDCHAR
STARTCHAR C0060
ENCODING 96
SWIDTH 666 0
DWIDTH 8 0
BBX 8 16 0 -4
BITMAP
00
00
00
00
20
10
08
00
00
00
00
00
00
00
00
00
ENDCHAR
STARTCHAR C0061
ENCODING 97
SWIDTH 666 0
DWIDTH 8 0
BBX 8 16 0 -4
BITMAP
00
00
00
00
00
00
00
1c
22
02
3e
42
42
3e
00
00
ENDCHAR
STARTCHAR C0062
ENCODING 98
SWIDTH 666 0
DWIDTH 8 0
BBX 8 16 0 -4
BITMAP
00
00
00
00
40
40
40
78
44
42
42
42
42
7c
00
00
ENDCHAR
STARTCHAR C0063
ENCODING 99
SWIDTH 666 0
DWIDTH 8 0
BBX 8 16 0 -4
BITMAP
00
00
00
00
00
00
00
3c
42
40
40
40
42
3c
00
00
ENDCHAR
STARTCHAR C0064
ENCODING 100
SWIDTH 666 0
DWIDTH 8 0
BBX 8 16 0 -4
BITMAP
00
00
00
00
02
02
02
1e
22
42
42
42
42
3e
00
00
ENDCHAR
STARTCHAR C0065
ENCODING 101
SWIDTH 666 0
DWIDTH 8 0
BBX 8 16 0 -4
BITMAP
00
00
00
00
00
00
00
3c
42
42
7c
40
42
3c
00
00
ENDCHAR
STARTCHAR C0066
ENCODING 102
SWIDTH 666 0
DWIDTH 8 0
BBX 8 16 0 -4
BITMAP
00
00
00
00
0e
11
10
7e
10
10
10
10
10
10
00
00
ENDCHAR
STARTCHAR C0067
ENCODING 103
SWIDTH 666 0
DWIDTH 8 0
BBX 8 16 0 -4
BITMAP
00
00
00
00
00
00
00
3c
42
42
42
42
3e
02
42
3c
ENDCHAR
STARTCHAR C0068
ENCODING 104
SWIDTH 666 0
DWIDTH 8 0
BBX 8 16 0 -4
BITMAP
00
00
00
00
40
40
40
5c
62
42
42
42
42
42
00
00
ENDCHAR
STARTCHAR C0069
ENCODING 105
SWIDTH 666 0
DWIDTH 8 0
BBX 8 16 0 -4
BITMAP
00
00
00
00
08
00
00
08
08
08
08
08
08
08
00
00
ENDCHAR
STARTCHAR C006a
ENCODING 106
SWIDTH 666 0
DWIDTH 8 0
BBX 8 16 0 -4
BITMAP
00
00
00
00
04
00
00
04
04
04
04
04
04
04
24
18
ENDCHAR
STARTCHAR C006b
ENCODING 107
SWIDTH 666 0
DWIDTH 8 0
BBX 8 16 0 -4
BITMAP
00
00
00
00
40
40
40
44
48
50
60
50
48
44
00
00
ENDCHAR
STARTCHAR C006c
ENCODING 108
SWIDTH 666 0
DWIDTH 8 0
BBX 8 16 0 -4
BITMAP
00
00
00
00
08
08
08
08
08
08
08
08
08
0c
00
00
ENDCHAR
STARTCHAR C006d
ENCODING 109
SWIDTH 666 0
DWIDTH 8 0
BBX 8 16 0 -4
BITMAP
00
00
00
00
00
00
00
76
49
49
49
49
49
49
00
00
ENDCHAR
STARTCHAR C006e
ENCODING 110
SWIDTH 666 0
DWIDTH 8 0
BBX 8 16 0 -4
BITMAP
00
00
00
00
00
00
00
7c
42
42
42
42
42
42
00
00
ENDCHAR
STARTCHAR C006f
ENCODING 111
SWIDTH 666 0
DWIDTH 8 0
BBX 8 16 0 -4
BITMAP
00
00
00
00
00
00
00
3c
42
42
42
42
42
3c
00
00
ENDCHAR
STARTCHAR C0070
ENCODING 112
SWIDTH 666 0
DWIDTH 8 0
BBX 8 16 0 -4
BITMAP
00
00
00
00
00
00
00
7c
42
42
42
42
7c
40
40
40
ENDCHAR
STARTCHAR C0071
ENCODING 113
SWIDTH 666 0
DWIDTH 8 0
BBX 8 16 0 -4
BITMAP
00
00
00
00
00
00
00
3e
42
42
42
42
3e
02
02
03
ENDCHAR
STARTCHAR C0072
ENCODING 114
SWIDTH 666 0
DWIDTH 8 0
BBX 8 16 0 -4
BITMAP
00
00
00
00
00
00
00
5c
62
40
40
40
40
40
00
00
ENDCHAR
STARTCHAR C0073
ENCODING 115
SWIDTH 666 0
DWIDTH 8 0
BBX 8 16 0 -4
BITMAP
00
00
00
00
00
00
00
3c
42
20
18
04
42
3c
00
00
ENDCHAR
STARTCHAR C0074
ENCODING 116
SWIDTH 666 0
DWIDTH 8 0
BBX 8 16 0 -4
BITMAP
00
00
00
00
10
10
10
7c
10
10
10
10
12
0c
00
00
ENDCHAR
STARTCHAR C0075
ENCODING 117
SWIDTH 666 0
DWIDTH 8 0
BBX 8 16 0 -4
BITMAP
00
00
00
00
00
00
00
42
42
42
42
42
42
3e
00
00
ENDCHAR
STARTCHAR C0076
ENCODING 118
SWIDTH 666 0
DWIDTH 8 0
BBX 8 16 0 -4
BITMAP
00
00
00
00
00
00
00
42
42
42
24
24
18
18
00
00
ENDCHAR
STARTCHAR C0077
ENCODING 119
SWIDTH 666 0
DWIDTH 8 0
BBX 8 16 0 -4
BITMAP
00
00
00
00
00
00
00
42
42
42
42
5a
5a
24
00
00
ENDCHAR
STARTCHAR C0078
ENCODING 120
SWIDTH 666 0
DWIDTH 8 0
BBX 8 16 0 -4
BITMAP
00
00
00
00
00
00
00
42
42
24
18
24
42
42
00
00
ENDCHAR
STARTCHAR C0079
ENCODING 121
SWIDTH 666 0
DWIDTH 8 0
BBX 8 16 0 -4
BITMAP
00
00
00
00
00
00
00
42
42
42
22
14
08
10
20
40
ENDCHAR
STARTCHAR C007a
ENCODING 122
SWIDTH 666 0
DWIDTH 8 0
BBX 8 16 0 -4
BITMAP
00
00
00
00
00
00
00
7e
02
04
08
10
20
7e
00
00
ENDCHAR
STARTCHAR C007b
ENCODING 123
SWIDTH 666 0
DWIDTH 8 0
BBX 8 16 0 -4
BITMAP
00
00
00
00
0c
10
10
10
10
20
10
10
10
10
0c
00
ENDCHAR
STARTCHAR C007c
ENCODING 124
SWIDTH 666 0
DWIDTH 8 0
BBX 8 16 0 -4
BITMAP
00
00
00
08
08
08
08
08
08
08
08
08
08
08
08
08
ENDCHAR
STARTCHAR C007d
ENCODING 125
SWIDTH 666 0
DWIDTH 8 0
BBX 8 16 0 -4
BITMAP
00
00
00
00
30
08
08
08
08
04
08
08
08
08
30
00
ENDCHAR
STARTCHAR C007e
ENCODING 126
SWIDTH 666 0
DWIDTH 8 0
BBX 8 16 0 -4
BITMAP
00
00
00
30
49
06
00
00
00
00
00
00
00
00
00
00
ENDCHAR
STARTCHAR C007f
ENCODING 127
SWIDTH 666 0
DWIDTH 8 0
BBX 8 16 0 -4
BITMAP
00
00
10
08
04
1c
08
08
08
08
08
08
08
1c
00
00
ENDCHAR
STARTCHAR C0080
ENCODING 128
SWIDTH 666 0
DWIDTH 8 0
BBX 8 16 0 -4
BITMAP
00
00
00
00
00
3c
42
40
40
40
40
40
42
3c
08
30
ENDCHAR
STARTCHAR C0081
ENCODING 129
SWIDTH 666 0
DWIDTH 8 0
BBX 8 16 0 -4
BITMAP
00
00
00
00
00
24
00
42
42
42
42
42
42
3e
00
00
ENDCHAR
STARTCHAR C0082
ENCODING 130
SWIDTH 666 0
DWIDTH 8 0
BBX 8 16 0 -4
BITMAP
00
00
00
04
08
10
00
3c
42
42
7c
40
42
3c
00
00
ENDCHAR
STARTCHAR C0083
ENCODING 131
SWIDTH 666 0
DWIDTH 8 0
BBX 8 16 0 -4
BITMAP
00
00
00
00
18
24
00
1c
22
02
3e
42
42
3e
00
00
ENDCHAR
STARTCHAR C0084
ENCODING 132
SWIDTH 666 0
DWIDTH 8 0
BBX 8 16 0 -4
BITMAP
00
00
00
00
00
24
00
1c
22
02
3e
42
42
3e
00
00
ENDCHAR
STARTCHAR C0085
ENCODING 133
SWIDTH 666 0
DWIDTH 8 0
BBX 8 16 0 -4
BITMAP
00
00
00
20
10
08
00
1c
22
02
3e
42
42
3e
00
00
ENDCHAR
STARTCHAR C0086
ENCODING 134
SWIDTH 666 0
DWIDTH 8 0
BBX 8 16 0 -4
BITMAP
00
00
00
18
24
18
00
1c
22
02
3e
42
42
3e
00
00
ENDCHAR
STARTCHAR C0087
ENCODING 135
SWIDTH 666 0
DWIDTH 8 0
BBX 8 16 0 -4
BITMAP
00
00
00
00
00
00
00
3c
42
40
40
40
42
3c
08
30
ENDCHAR
STARTCHAR C0088
ENCODING 136
SWIDTH 666 0
DWIDTH 8 0
BBX 8 16 0 -4
BITMAP
00
00
00
00
18
24
00
3c
42
42
7c
40
42
3c
00
00
ENDCHAR
STARTCHAR C0089
ENCODING 137
SWIDTH 666 0
DWIDTH 8 0
BBX 8 16 0 -4
BITMAP
00
00
00
00
00
24
00
3c
42
42
7c
40
42
3c
00
00
ENDCHAR
STARTCHAR C008a
ENCODING 138
SWIDTH 666 0
DWIDTH 8 0
BBX 8 16 0 -4
BITMAP
00
00
00
20
10
08
00
3c
42
42
7c
40
42
3c
00
00
ENDCHAR
STARTCHAR C008b
ENCODING 139
SWIDTH 666 0
DWIDTH 8 0
BBX 8 16 0 -4
BITMAP
00
00
00
00
00
14
00
08
08
08
08
08
08
08
00
00
ENDCHAR
STARTCHAR C008c
ENCODING 140
SWIDTH 666 0
DWIDTH 8 0
BBX 8 16 0 -4
BITMAP
00
00
00
00
08
14
00
08
08
08
08
08
08
08
00
00
ENDCHAR
STARTCHAR C008d
ENCODING 141
SWIDTH 666 0
DWIDTH 8 0
BBX 8 16 0 -4
BITMAP
00
00
00
20
10
08
00
08
08
08
08
08
08
08
00
00
ENDCHAR
STARTCHAR C008e
ENCODING 142
SWIDTH 666 0
DWIDTH 8 0
BBX 8 16 0 -4
BITMAP
00
00
00
24
00
18
24
42
42
42
7e
42
42
42
00
00
ENDCHAR
STARTCHAR C008f
ENCODING 143
SWIDTH 666 0
DWIDTH 8 0
BBX 8 16 0 -4
BITMAP
00
00
18
24
18
18
24
42
42
42
7e
42
42
42
00
00
ENDCHAR
STARTCHAR C0090
ENCODING 144
SWIDTH 666 0
DWIDTH 8 0
BBX 8 16 0 -4
BITMAP
00
00
04
08
10
7e
40
40
40
7c
40
40
40
7e
00
00
ENDCHAR
STARTCHAR C0091
ENCODING 145
SWIDTH 666 0
DWIDTH 8 0
BBX 8 16 0 -4
BITMAP
00
00
00
00
00
00
00
36
49
09
3e
48
49
36
00
00
ENDCHAR
STARTCHAR C0092
ENCODING 146
SWIDTH 666 0
DWIDTH 8 0
BBX 8 16 0 -4
BITMAP
00
00
00
00
00
1e
28
48
48
4e
78
48
48
4e
00
00
ENDCHAR
STARTCHAR C0093
ENCODING 147
SWIDTH 666 0
DWIDTH 8 0
BBX 8 16 0 -4
BITMAP
00
00
00
00
18
24
00
3c
42
42
42
42
42
3c
00
00
ENDCHAR
STARTCHAR C0094
ENCODING 148
SWIDTH 666 0
DWIDTH 8 0
BBX 8 16 0 -4
BITMAP
00
00
00
00
00
24
00
3c
42
42
42
42
42
3c
00
00
ENDCHAR
STARTCHAR C0095
ENCODING 149
SWIDTH 666 0
DWIDTH 8 0
BBX 8 16 0 -4
BITMAP
00
00
00
20
10
08
00
3c
42
42
42
42
42
3c
00
00
ENDCHAR
STARTCHAR C0096
ENCODING 150
SWIDTH 666 0
DWIDTH 8 0
BBX 8 16 0 -4
BITMAP
00
00
00
00
18
24
00
42
42
42
42
42
42
3e
00
00
ENDCHAR
STARTCHAR C0097
ENCODING 151
SWIDTH 666 0
DWIDTH 8 0
BBX 8 16 0 -4
BITMAP
00
00
00
20
10
08
00
42
42
42
42
42
42
3e
00
00
ENDCHAR
STARTCHAR C0098
ENCODING 152
SWIDTH 666 0
DWIDTH 8 0
BBX 8 16 0 -4
BITMAP
00
00
00
00
00
24
00
42
42
42
22
14
08
10
20
40
ENDCHAR
STARTCHAR C0099
ENCODING 153
SWIDTH 666 0
DWIDTH 8 0
BBX 8 16 0 -4
BITMAP
00
00
00
24
00
3c
42
42
42
42
42
42
42
3c
00
00
ENDCHAR
STARTCHAR C009a
ENCODING 154
SWIDTH 666 0
DWIDTH 8 0
BBX 8 16 0 -4
BITMAP
00
00
00
24
00
42
42
42
42
42
42
42
42
3c
00
00
ENDCHAR
STARTCHAR C009b
ENCODING 155
SWIDTH 666 0
DWIDTH 8 0
BBX 8 16 0 -4
BITMAP
00
00
08
08
3c
4a
48
48
48
48
48
4a
3c
08
08
00
ENDCHAR
STARTCHAR C009c
ENCODING 156
SWIDTH 666 0
DWIDTH 8 0
BBX 8 16 0 -4
BITMAP
00
00
00
00
0c
12
10
10
7e
10
10
10
71
6e
00
00
ENDCHAR
STARTCHAR C009d
ENCODING 157
SWIDTH 666 0
DWIDTH 8 0
BBX 8 16 0 -4
BITMAP
00
00
00
00
41
22
14
08
7f
08
08
08
08
08
00
00
ENDCHAR
STARTCHAR C009e
ENCODING 158
SWIDTH 666 0
DWIDTH 8 0
BBX 8 16 0 -4
BITMAP
00
00
04
08
10
1c
08
08
08
08
08
08
08
1c
00
00
ENDCHAR
STARTCHAR C009f
ENCODING 159
SWIDTH 666 0
DWIDTH 8 0
BBX 8 16 0 -4
BITMAP
00
00
08
14
00
1c
08
08
08
08
08
08
08
1c
00
00
ENDCHAR
STARTCHAR C00a0
ENCODING 160
SWIDTH 666 0
DWIDTH 8 0
BBX 8 16 0 -4
BITMAP
00
00
00
04
08
10
00
1c
22
02
3e
42
42
3e
00
00
ENDCHAR
STARTCHAR C00a1
ENCODING 161
SWIDTH 666 0
DWIDTH 8 0
BBX 8 16 0 -4
BITMAP
00
00
00
04
08
10
00
08
08
08
08
08
08
08
00
00
ENDCHAR
STARTCHAR C00a2
ENCODING 162
SWIDTH 666 0
DWIDTH 8 0
BBX 8 16 0 -4
BITMAP
00
00
00
04
08
10
00
3c
42
42
42
42
42
3c
00
00
ENDCHAR
STARTCHAR C00a3
ENCODING 163
SWIDTH 666 0
DWIDTH 8 0
BBX 8 16 0 -4
BITMAP
00
00
00
04
08
10
00
42
42
42
42
42
42
3e
00
00
ENDCHAR
STARTCHAR C00a4
ENCODING 164
SWIDTH 666 0
DWIDTH 8 0
BBX 8 16 0 -4
BITMAP
00
00
00
00
32
4c
00
7c
42
42
42
42
42
42
00
00
ENDCHAR
STARTCHAR C00a5
ENCODING 165
SWIDTH 666 0
DWIDTH 8 0
BBX 8 16 0 -4
BITMAP
00
00
32
4c
00
42
42
62
52
4a
46
42
42
42
00
00
ENDCHAR
STARTCHAR C00a6
ENCODING 166
SWIDTH 666 0
DWIDTH 8 0
BBX 8 16 0 -4
BITMAP
00
00
00
00
00
1c
22
02
1e
22
22
1e
00
3e
00
00
ENDCHAR
STARTCHAR C00a7
ENCODING 167
SWIDTH 666 0
DWIDTH 8 0
BBX 8 16 0 -4
BITMAP
00
00
00
00
00
00
18
24
42
42
24
18
00
3e
00
00
ENDCHAR
STARTCHAR C00a8
ENCODING 168
SWIDTH 666 0
DWIDTH 8 0
BBX 8 16 0 -4
BITMAP
00
00
00
00
08
00
08
08
08
10
20
42
42
3c
00
00
ENDCHAR
STARTCHAR C00a9
ENCODING 169
SWIDTH 666 0
DWIDTH 8 0
BBX 8 16 0 -4
BITMAP
00
00
00
14
00
1c
08
08
08
08
08
08
08
1c
00
00
ENDCHAR
STARTCHAR C00aa
ENCODING 170
SWIDTH 666 0
DWIDTH 8 0
BBX 8 16 0 -4
BITMAP
00
00
00
00
7e
02
02
02
00
00
00
00
00
00
00
00
ENDCHAR
STARTCHAR C00ab
ENCODING 171
SWIDTH 666 0
DWIDTH 8 0
BBX 8 16 0 -4
BITMAP
00
00
00
00
20
21
22
24
28
10
2c
52
04
08
1e
00
ENDCHAR
STARTCHAR C00ac
ENCODING 172
SWIDTH 666 0
DWIDTH 8 0
BBX 8 16 0 -4
BITMAP
00
00
00
00
20
21
22
24
28
12
26
4a
12
3f
02
00
ENDCHAR
STARTCHAR C00ad
ENCODING 173
SWIDTH 666 0
DWIDTH 8 0
BBX 8 16 0 -4
BITMAP
00
00
00
00
08
00
00
08
08
08
08
08
08
08
00
00
ENDCHAR
STARTCHAR C00ae
ENCODING 174
SWIDTH 666 0
DWIDTH 8 0
BBX 8 16 0 -4
BITMAP
00
00
00
00
09
12
24
24
48
48
24
24
12
09
00
00
ENDCHAR
STARTCHAR C00af
ENCODING 175
SWIDTH 666 0
DWIDTH 8 0
BBX 8 16 0 -4
BITMAP
00
00
00
00
48
24
12
12
09
09
12
12
24
48
00
00
ENDCHAR
STARTCHAR C00b0
ENCODING 176
SWIDTH 666 0
DWIDTH 8 0
BBX 8 16 0 -4
BITMAP
88
22
88
22
88
22
88
22
88
22
88
22
88
22
88
22
ENDCHAR
STARTCHAR C00b1
ENCODING 177
SWIDTH 666 0
DWIDTH 8 0
BBX 8 16 0 -4
BITMAP
aa
55
aa
55
aa
55
aa
55
aa
55
aa
55
aa
55
aa
55
ENDCHAR
STARTCHAR C00b2
ENCODING 178
SWIDTH 666 0
DWIDTH 8 0
BBX 8 16 0 -4
BITMAP
ee
bb
ee
bb
ee
bb
ee
bb
ee
bb
ee
bb
ee
bb
ee
bb
ENDCHAR
STARTCHAR C00b3
ENCODING 179
SWIDTH 666 0
DWIDTH 8 0
BBX 8 16 0 -4
BITMAP
08
08
08
08
08
08
08
08
08
08
08
08
08
08
08
08
ENDCHAR
STARTCHAR C00b4
ENCODING 180
SWIDTH 666 0
DWIDTH 8 0
BBX 8 16 0 -4
BITMAP
08
08
08
08
08
08
08
f8
08
08
08
08
08
08
08
08
ENDCHAR
STARTCHAR C00b5
ENCODING 181
SWIDTH 666 0
DWIDTH 8 0
BBX 8 16 0 -4
BITMAP
08
08
08
08
08
08
f8
08
f8
08
08
08
08
08
08
08
ENDCHAR
STARTCHAR C00b6
ENCODING 182
SWIDTH 666 0
DWIDTH 8 0
BBX 8 16 0 -4
BITMAP
14
14
14
14
14
14
14
f4
14
14
14
14
14
14
14
14
ENDCHAR
STARTCHAR C00b7
ENCODING 183
SWIDTH 666 0
DWIDTH 8 0
BBX 8 16 0 -4
BITMAP
00
00
00
00
00
00
00
fc
14
14
14
14
14
14
14
14
ENDCHAR
STARTCHAR C00b8
ENCODING 184
SWIDTH 666 0
DWIDTH 8 0
BBX 8 16 0 -4
BITMAP
00
00
00
00
00
00
f8
08
f8
08
08
08
08
08
08
08
ENDCHAR
STARTCHAR C00b9
ENCODING 185
SWIDTH 666 0
DWIDTH 8 0
BBX 8 16 0 -4
BITMAP
14
14
14
14
14
14
f4
04
f4
14
14
14
14
14
14
14
ENDCHAR
STARTCHAR C00ba
ENCODING 186
SWIDTH 666 0
DWIDTH 8 0
BBX 8 16 0 -4
BITMAP
14
14
14
14
14
14
14
14
14
14
14
14
14
14
14
14
ENDCHAR
STARTCHAR C00bb
ENCODING 187
SWIDTH 666 0
DWIDTH 8 0
BBX 8 16 0 -4
BITMAP
00
00
00
00
00
00
fc
04
f4
14
14
14
14
14
14
14
ENDCHAR
STARTCHAR C00bc
ENCODING 188
SWIDTH 666 0
DWIDTH 8 0
BBX 8 16 0 -4
BITMAP
14
14
14
14
14
14
f4
04
fc
00
00
00
00
00
00
00
ENDCHAR
STARTCHAR C00bd
ENCODING 189
SWIDTH 666 0
DWIDTH 8 0
BBX 8 16 0 -4
BITMAP
14
14
14
14
14
14
14
fc
00
00
00
00
00
00
00
00
ENDCHAR
STARTCHAR C00be
ENCODING 190
SWIDTH 666 0
DWIDTH 8 0
BBX 8 16 0 -4
BITMAP
08
08
08
08
08
08
f8
08
f8
00
00
00
00
00
00
00
ENDCHAR
STARTCHAR C00bf
ENCODING 191
SWIDTH 666 0
DWIDTH 8 0
BBX 8 16 0 -4
BITMAP
00
00
00
00
00
00
00
f8
08
08
08
08
08
08
08
08
ENDCHAR
STARTCHAR C00c0
ENCODING 192
SWIDTH 666 0
DWIDTH 8 0
BBX 8 16 0 -4
BITMAP
08
08
08
08
08
08
08
0f
00
00
00
00
00
00
00
00
ENDCHAR
STARTCHAR C00c1
ENCODING 193
SWIDTH 666 0
DWIDTH 8 0
BBX 8 16 0 -4
BITMAP
08
08
08
08
08
08
08
ff
00
00
00
00
00
00
00
00
ENDCHAR
STARTCHAR C00c2
ENCODING 194
SWIDTH 666 0
DWIDTH 8 0
BBX 8 16 0 -4
BITMAP
00
00
00
00
00
00
00
ff
08
08
08
08
08
08
08
08
ENDCHAR
STARTCHAR C00c3
ENCODING 195
SWIDTH 666 0
DWIDTH 8 0
BBX 8 16 0 -4
BITMAP
08
08
08
08
08
08
08
0f
08
08
08
08
08
08
08
08
ENDCHAR
STARTCHAR C00c4
ENCODING 196
SWIDTH 666 0
DWIDTH 8 0
BBX 8 16 0 -4
BITMAP
00
00
00
00
00
00
00
ff
00
00
00
00
00
00
00
00
ENDCHAR
STARTCHAR C00c5
ENCODING 197
SWIDTH 666 0
DWIDTH 8 0
BBX 8 16 0 -4
BITMAP
08
08
08
08
08
08
08
ff
08
08
08
08
08
08
08
08
ENDCHAR
STARTCHAR C00c6
ENCODING 198
SWIDTH 666 0
DWIDTH 8 0
BBX 8 16 0 -4
BITMAP
08
08
08
08
08
08
0f
08
0f
08
08
08
08
08
08
08
ENDCHAR
STARTCHAR C00c7
ENCODING 199
SWIDTH 666 0
DWIDTH 8 0
BBX 8 16 0 -4
BITMAP
14
14
14
14
14
14
14
17
14
14
14
14
14
14
14
14
ENDCHAR
STARTCHAR C00c8
ENCODING 200
SWIDTH 666 0
DWIDTH 8 0
BBX 8 16 0 -4
BITMAP
14
14
14
14
14
14
17
10
1f
00
00
00
00
00
00
00
ENDCHAR
STARTCHAR C00c9
ENCODING 201
SWIDTH 666 0
DWIDTH 8 0
BBX 8 16 0 -4
BITMAP
00
00
00
00
00
00
1f
10
17
14
14
14
14
14
14
14
ENDCHAR
STARTCHAR C00ca
ENCODING 202
SWIDTH 666 0
DWIDTH 8 0
BBX 8 16 0 -4
BITMAP
14
14
14
14
14
14
f7
00
ff
00
00
00
00
00
00
00
ENDCHAR
STARTCHAR C00cb
ENCODING 203
SWIDTH 666 0
DWIDTH 8 0
BBX 8 16 0 -4
BITMAP
00
00
00
00
00
00
ff
00
f7
14
14
14
14
14
14
14
ENDCHAR
STARTCHAR C00cc
ENCODING 204
SWIDTH 666 0
DWIDTH 8 0
BBX 8 16 0 -4
BITMAP
14
14
14
14
14
14
17
10
17
14
14
14
14
14
14
14
ENDCHAR
STARTCHAR C00cd
ENCODING 205
SWIDTH 666 0
DWIDTH 8 0
BBX 8 16 0 -4
BITMAP
00
00
00
00
00
00
ff
00
ff
00
00
00
00
00
00
00
ENDCHAR
STARTCHAR C00ce
ENCODING 206
SWIDTH 666 0
DWIDTH 8 0
BBX 8 16 0 -4
BITMAP
14
14
14
14
14
14
f7
00
f7
14
14
14
14
14
14
14
ENDCHAR
STARTCHAR C00cf
ENCODING 207
SWIDTH 666 0
DWIDTH 8 0
BBX 8 16 0 -4
BITMAP
08
08
08
08
08
08
ff
00
ff
00
00
00
00
00
00
00
ENDCHAR
STARTCHAR C00d0
ENCODING 208
SWIDTH 666 0
DWIDTH 8 0
BBX 8 16 0 -4
BITMAP
14
14
14
14
14
14
14
ff
00
00
00
00
00
00
00
00
ENDCHAR
STARTCHAR C00d1
ENCODING 209
SWIDTH 666 0
DWIDTH 8 0
BBX 8 16 0 -4
BITMAP
00
00
00
00
00
00
ff
00
ff
08
08
08
08
08
08
08
ENDCHAR
STARTCHAR C00d2
ENCODING 210
SWIDTH 666 0
DWIDTH 8 0
BBX 8 16 0 -4
BITMAP
00
00
00
00
00
00
00
ff
14
14
14
14
14
14
14
14
ENDCHAR
STARTCHAR C00d3
ENCODING 211
SWIDTH 666 0
DWIDTH 8 0
BBX 8 16 0 -4
BITMAP
14
14
14
14
14
14
14
1f
00
00
00
00
00
00
00
00
ENDCHAR
STARTCHAR C00d4
ENCODING 212
SWIDTH 666 0
DWIDTH 8 0
BBX 8 16 0 -4
BITMAP
08
08
08
08
08
08
0f
08
0f
00
00
00
00
00
00
00
ENDCHAR
STARTCHAR C00d5
ENCODING 213
SWIDTH 666 0
DWIDTH 8 0
BBX 8 16 0 -4
BITMAP
00
00
00
00
00
00
0f
08
0f
08
08
08
08
08
08
08
ENDCHAR
STARTCHAR C00d6
ENCODING 214
SWIDTH 666 0
DWIDTH 8 0
BBX 8 16 0 -4
BITMAP
00
00
00
00
00
00
00
1f
14
14
14
14
14
14
14
14
ENDCHAR
STARTCHAR C00d7
ENCODING 215
SWIDTH 666 0
DWIDTH 8 0
BBX 8 16 0 -4
BITMAP
14
14
14
14
14
14
14
ff
14
14
14
14
14
14
14
14
ENDCHAR
STARTCHAR C00d8
ENCODING 216
SWIDTH 666 0
DWIDTH 8 0
BBX 8 16 0 -4
BITMAP
08
08
08
08
08
08
ff
08
ff
08
08
08
08
08
08
08
ENDCHAR
STARTCHAR C00d9
ENCODING 217
SWIDTH 666 0
DWIDTH 8 0
BBX 8 16 0 -4
BITMAP
08
08
08
08
08
08
08
f8
00
00
00
00
00
00
00
00
ENDCHAR
STARTCHAR C00da
ENCODING 218
SWIDTH 666 0
DWIDTH 8 0
BBX 8 16 0 -4
BITMAP
00
00
00
00
00
00
00
0f
08
08
08
08
08
08
08
08
ENDCHAR
STARTCHAR C00db
ENCODING 219
SWIDTH 666 0
DWIDTH 8 0
BBX 8 16 0 -4
BITMAP
00
00
00
00
00
f8
44
42
42
e2
42
42
44
f8
00
00
ENDCHAR
STARTCHAR C00dc
ENCODING 220
SWIDTH 666 0
DWIDTH 8 0
BBX 8 16 0 -4
BITMAP
00
00
00
00
00
00
00
00
ff
ff
ff
ff
ff
ff
ff
ff
ENDCHAR
STARTCHAR C00dd
ENCODING 221
SWIDTH 666 0
DWIDTH 8 0
BBX 8 16 0 -4
BITMAP
f0
f0
f0
f0
f0
f0
f0
f0
f0
f0
f0
f0
f0
f0
f0
f0
ENDCHAR
STARTCHAR C00de
ENCODING 222
SWIDTH 666 0
DWIDTH 8 0
BBX 8 16 0 -4
BITMAP
0f
0f
0f
0f
0f
0f
0f
0f
0f
0f
0f
0f
0f
0f
0f
0f
ENDCHAR
STARTCHAR C00df
ENCODING 223
SWIDTH 666 0
DWIDTH 8 0
BBX 8 16 0 -4
BITMAP
ff
ff
ff
ff
ff
ff
ff
ff
00
00
00
00
00
00
00
00
ENDCHAR
STARTCHAR C00e0
ENCODING 224
SWIDTH 666 0
DWIDTH 8 0
BBX 8 16 0 -4
BITMAP
00
00
00
00
00
00
32
4a
44
44
44
44
4a
32
00
00
ENDCHAR
STARTCHAR C00e1
ENCODING 225
SWIDTH 666 0
DWIDTH 8 0
BBX 8 16 0 -4
BITMAP
00
00
00
00
38
44
44
48
44
42
42
42
52
4c
00
00
ENDCHAR
STARTCHAR C00e2
ENCODING 226
SWIDTH 666 0
DWIDTH 8 0
BBX 8 16 0 -4
BITMAP
00
00
20
10
08
3c
42
42
42
42
42
42
42
3c
00
00
ENDCHAR
STARTCHAR C00e3
ENCODING 227
SWIDTH 666 0
DWIDTH 8 0
BBX 8 16 0 -4
BITMAP
00
00
00
00
00
00
7e
24
24
24
24
24
24
24
00
00
ENDCHAR
STARTCHAR C00e4
ENCODING 228
SWIDTH 666 0
DWIDTH 8 0
BBX 8 16 0 -4
BITMAP
00
00
04
08
10
3c
42
42
42
42
42
42
42
3c
00
00
ENDCHAR
STARTCHAR C00e5
ENCODING 229
SWIDTH 666 0
DWIDTH 8 0
BBX 8 16 0 -4
BITMAP
00
00
18
24
00
3c
42
42
42
42
42
42
42
3c
00
00
ENDCHAR
STARTCHAR C00e6
ENCODING 230
SWIDTH 666 0
DWIDTH 8 0
BBX 8 16 0 -4
BITMAP
00
00
00
00
00
00
00
42
42
42
42
42
62
5d
40
40
ENDCHAR
STARTCHAR C00e7
ENCODING 231
SWIDTH 666 0
DWIDTH 8 0
BBX 8 16 0 -4
BITMAP
00
00
32
4c
00
3c
42
42
42
42
42
42
42
3c
00
00
ENDCHAR
STARTCHAR C00e8
ENCODING 232
SWIDTH 666 0
DWIDTH 8 0
BBX 8 16 0 -4
BITMAP
00
00
00
00
00
00
00
00
00
00
00
00
00
7e
00
7e
ENDCHAR
STARTCHAR C00e9
ENCODING 233
SWIDTH 666 0
DWIDTH 8 0
BBX 8 16 0 -4
BITMAP
00
00
00
00
00
3d
42
46
4a
52
62
42
c2
3c
00
00
ENDCHAR
STARTCHAR C00ea
ENCODING 234
SWIDTH 666 0
DWIDTH 8 0
BBX 8 16 0 -4
BITMAP
00
00
20
10
08
42
42
42
42
42
42
42
42
3c
00
00
ENDCHAR
STARTCHAR C00eb
ENCODING 235
SWIDTH 666 0
DWIDTH 8 0
BBX 8 16 0 -4
BITMAP
00
00
04
08
10
42
42
42
42
42
42
42
42
3c
00
00
ENDCHAR
STARTCHAR C00ec
ENCODING 236
SWIDTH 666 0
DWIDTH 8 0
BBX 8 16 0 -4
BITMAP
00
00
00
00
00
00
00
36
49
49
36
00
00
00
00
00
ENDCHAR
STARTCHAR C00ed
ENCODING 237
SWIDTH 666 0
DWIDTH 8 0
BBX 8 16 0 -4
BITMAP
00
00
18
24
00
42
42
42
42
42
42
42
42
3c
00
00
ENDCHAR
STARTCHAR C00ee
ENCODING 238
SWIDTH 666 0
DWIDTH 8 0
BBX 8 16 0 -4
BITMAP
00
00
04
08
10
41
41
41
22
14
08
08
08
08
00
00
ENDCHAR
STARTCHAR C00ef
ENCODING 239
SWIDTH 666 0
DWIDTH 8 0
BBX 8 16 0 -4
BITMAP
00
00
00
00
00
00
3c
42
42
42
42
42
42
42
00
00
ENDCHAR
STARTCHAR C00f0
ENCODING 240
SWIDTH 666 0
DWIDTH 8 0
BBX 8 16 0 -4
BITMAP
00
00
00
00
00
00
00
7e
00
7e
00
7e
00
00
00
00
ENDCHAR
STARTCHAR C00f1
ENCODING 241
SWIDTH 666 0
DWIDTH 8 0
BBX 8 16 0 -4
BITMAP
00
00
00
00
08
08
08
7f
08
08
08
00
00
7f
00
00
ENDCHAR
STARTCHAR C00f2
ENCODING 242
SWIDTH 666 0
DWIDTH 8 0
BBX 8 16 0 -4
BITMAP
00
00
00
00
00
0c
03
00
00
00
03
0c
00
03
0c
00
ENDCHAR
STARTCHAR C00f3
ENCODING 243
SWIDTH 666 0
DWIDTH 8 0
BBX 8 16 0 -4
BITMAP
00
00
00
00
00
00
01
06
08
06
01
08
06
01
00
00
ENDCHAR
STARTCHAR C00f4
ENCODING 244
SWIDTH 666 0
DWIDTH 8 0
BBX 8 16 0 -4
BITMAP
00
00
00
00
e0
40
7c
42
42
42
42
7c
40
40
40
e0
ENDCHAR
STARTCHAR C00f5
ENCODING 245
SWIDTH 666 0
DWIDTH 8 0
BBX 8 16 0 -4
BITMAP
00
00
00
00
32
4c
00
1c
22
02
3e
42
42
3e
00
00
ENDCHAR
STARTCHAR C00f6
ENCODING 246
SWIDTH 666 0
DWIDTH 8 0
BBX 8 16 0 -4
BITMAP
00
00
00
00
00
00
18
00
00
7e
00
00
18
00
00
00
ENDCHAR
STARTCHAR C00f7
ENCODING 247
SWIDTH 666 0
DWIDTH 8 0
BBX 8 16 0 -4
BITMAP
00
00
00
00
00
00
00
32
4c
00
32
4c
00
00
00
00
ENDCHAR
STARTCHAR C00f8
ENCODING 248
SWIDTH 666 0
DWIDTH 8 0
BBX 8 16 0 -4
BITMAP
00
00
00
18
24
24
18
00
00
00
00
00
00
00
00
00
ENDCHAR
STARTCHAR C00f9
ENCODING 249
SWIDTH 666 0
DWIDTH 8 0
BBX 8 16 0 -4
BITMAP
00
00
00
00
40
28
10
28
44
1c
22
42
42
3c
00
00
ENDCHAR
STARTCHAR C00fa
ENCODING 250
SWIDTH 666 0
DWIDTH 8 0
BBX 8 16 0 -4
BITMAP
00
00
00
00
00
00
00
18
18
00
00
00
00
00
00
00
ENDCHAR
STARTCHAR C00fb
ENCODING 251
SWIDTH 666 0
DWIDTH 8 0
BBX 8 16 0 -4
BITMAP
00
00
07
04
04
04
04
04
74
14
14
0c
0c
04
04
00
ENDCHAR
STARTCHAR C00fc
ENCODING 252
SWIDTH 666 0
DWIDTH 8 0
BBX 8 16 0 -4
BITMAP
00
00
00
00
2c
32
22
22
22
00
00
00
00
00
00
00
ENDCHAR
STARTCHAR C00fd
ENCODING 253
SWIDTH 666 0
DWIDTH 8 0
BBX 8 16 0 -4
BITMAP
00
00
00
18
24
04
08
10
3c
00
00
00
00
00
00
00
ENDCHAR
STARTCHAR C00fe
ENCODING 254
SWIDTH 666 0
DWIDTH 8 0
BBX 8 16 0 -4
BITMAP
00
00
00
00
00
00
7f
7f
7f
7f
7f
7f
7f
00
00
00
ENDCHAR
STARTCHAR C00ff
ENCODING 255
SWIDTH 666 0
DWIDTH 8 0
BBX 8 16 0 -4
BITMAP
00
00
00
00
00
00
00
00
00
00
00
00
00
00
00
00
ENDCHAR
STARTCHAR C0100
ENCODING 256
SWIDTH 666 0
DWIDTH 8 0
BBX 8 16 0 -4
BITMAP
00
00
00
00
32
4c
00
3c
42
42
42
42
42
3c
00
00
ENDCHAR
STARTCHAR C0101
ENCODING 257
SWIDTH 666 0
DWIDTH 8 0
BBX 8 16 0 -4
BITMAP
00
00
00
00
00
00
00
3d
46
4a
52
62
42
bc
00
00
ENDCHAR
STARTCHAR C0102
ENCODING 258
SWIDTH 666 0
DWIDTH 8 0
BBX 8 16 0 -4
BITMAP
00
00
00
04
08
10
00
42
42
42
22
14
08
10
20
40
ENDCHAR
STARTCHAR C0103
ENCODING 259
SWIDTH 666 0
DWIDTH 8 0
BBX 8 16 0 -4
BITMAP
00
00
00
00
00
20
20
3c
22
22
22
22
3c
20
20
20
ENDCHAR
STARTCHAR C0104
ENCODING 260
SWIDTH 666 0
DWIDTH 8 0
BBX 8 16 0 -4
BITMAP
00
00
00
00
00
00
00
ff
ff
00
00
00
00
00
00
00
ENDCHAR
STARTCHAR C0105
ENCODING 261
SWIDTH 666 0
DWIDTH 8 0
BBX 8 16 0 -4
BITMAP
18
18
18
18
18
18
18
18
18
18
18
18
18
18
18
18
ENDCHAR
STARTCHAR C0106
ENCODING 262
SWIDTH 666 0
DWIDTH 8 0
BBX 8 16 0 -4
BITMAP
00
00
00
00
00
00
00
db
00
00
00
00
00
00
00
00
ENDCHAR
STARTCHAR C0107
ENCODING 263
SWIDTH 666 0
DWIDTH 8 0
BBX 8 16 0 -4
BITMAP
00
00
00
00
00
00
00
db
db
00
00
00
00
00
00
00
ENDCHAR
STARTCHAR C0108
ENCODING 264
SWIDTH 666 0
DWIDTH 8 0
BBX 8 16 0 -4
BITMAP
08
08
08
08
00
00
08
08
08
08
00
00
08
08
08
08
ENDCHAR
STARTCHAR C0109
ENCODING 265
SWIDTH 666 0
DWIDTH 8 0
BBX 8 16 0 -4
BITMAP
18
18
18
18
00
00
18
18
18
18
00
00
18
18
18
18
ENDCHAR
STARTCHAR C010a
ENCODING 266
SWIDTH 666 0
DWIDTH 8 0
BBX 8 16 0 -4
BITMAP
00
00
00
00
00
00
00
aa
00
00
00
00
00
00
00
00
ENDCHAR
STARTCHAR C010b
ENCODING 267
SWIDTH 666 0
DWIDTH 8 0
BBX 8 16 0 -4
BITMAP
00
00
00
00
00
00
00
aa
aa
00
00
00
00
00
00
00
ENDCHAR
STARTCHAR C010c
ENCODING 268
SWIDTH 666 0
DWIDTH 8 0
BBX 8 16 0 -4
BITMAP
08
08
08
00
08
08
08
00
08
08
08
00
08
08
08
00
ENDCHAR
STARTCHAR C010d
ENCODING 269
SWIDTH 666 0
DWIDTH 8 0
BBX 8 16 0 -4
BITMAP
18
18
18
00
18
18
18
00
18
18
18
00
18
18
18
00
ENDCHAR
STARTCHAR C010e
ENCODING 270
SWIDTH 666 0
DWIDTH 8 0
BBX 8 16 0 -4
BITMAP
00
00
00
00
00
00
00
0f
0f
08
08
08
08
08
08
08
ENDCHAR
STARTCHAR C010f
ENCODING 271
SWIDTH 666 0
DWIDTH 8 0
BBX 8 16 0 -4
BITMAP
00
00
00
00
00
00
00
1f
18
18
18
18
18
18
18
18
ENDCHAR
STARTCHAR C0110
ENCODING 272
SWIDTH 666 0
DWIDTH 8 0
BBX 8 16 0 -4
BITMAP
00
00
00
00
00
00
00
1f
1f
18
18
18
18
18
18
18
ENDCHAR
STARTCHAR C0111
ENCODING 273
SWIDTH 666 0
DWIDTH 8 0
BBX 8 16 0 -4
BITMAP
00
00
00
00
00
00
00
f8
f8
08
08
08
08
08
08
08
ENDCHAR
STARTCHAR C0112
ENCODING 274
SWIDTH 666 0
DWIDTH 8 0
BBX 8 16 0 -4
BITMAP
00
00
00
00
00
00
00
f8
18
18
18
18
18
18
18
18
ENDCHAR
STARTCHAR C0113
ENCODING 275
SWIDTH 666 0
DWIDTH 8 0
BBX 8 16 0 -4
BITMAP
00
00
00
00
00
00
00
f8
f8
18
18
18
18
18
18
18
ENDCHAR
STARTCHAR C0114
ENCODING 276
SWIDTH 666 0
DWIDTH 8 0
BBX 8 16 0 -4
BITMAP
08
08
08
08
08
08
08
0f
0f
00
00
00
00
00
00
00
ENDCHAR
STARTCHAR C0115
ENCODING 277
SWIDTH 666 0
DWIDTH 8 0
BBX 8 16 0 -4
BITMAP
18
18
18
18
18
18
18
1f
00
00
00
00
00
00
00
00
ENDCHAR
STARTCHAR C0116
ENCODING 278
SWIDTH 666 0
DWIDTH 8 0
BBX 8 16 0 -4
BITMAP
18
18
18
18
18
18
18
1f
1f
00
00
00
00
00
00
00
ENDCHAR
STARTCHAR C0117
ENCODING 279
SWIDTH 666 0
DWIDTH 8 0
BBX 8 16 0 -4
BITMAP
08
08
08
08
08
08
08
f8
f8
00
00
00
00
00
00
00
ENDCHAR
STARTCHAR C0118
ENCODING 280
SWIDTH 666 0
DWIDTH 8 0
BBX 8 16 0 -4
BITMAP
18
18
18
18
18
18
18
f8
00
00
00
00
00
00
00
00
ENDCHAR
STARTCHAR C0119
ENCODING 281
SWIDTH 666 0
DWIDTH 8 0
BBX 8 16 0 -4
BITMAP
18
18
18
18
18
18
18
f8
f8
00
00
00
00
00
00
00
ENDCHAR
STARTCHAR C011a
ENCODING 282
SWIDTH 666 0
DWIDTH 8 0
BBX 8 16 0 -4
BITMAP
08
08
08
08
08
08
08
0f
0f
08
08
08
08
08
08
08
ENDCHAR
STARTCHAR C011b
ENCODING 283
SWIDTH 666 0
DWIDTH 8 0
BBX 8 16 0 -4
BITMAP
18
18
18
18
18
18
18
1f
08
08
08
08
08
08
08
08
ENDCHAR
STARTCHAR C011c
ENCODING 284
SWIDTH 666 0
DWIDTH 8 0
BBX 8 16 0 -4
BITMAP
08
08
08
08
08
08
08
1f
18
18
18
18
18
18
18
18
ENDCHAR
STARTCHAR C011d
ENCODING 285
SWIDTH 666 0
DWIDTH 8 0
BBX 8 16 0 -4
BITMAP
18
18
18
18
18
18
18
1f
18
18
18
18
18
18
18
18
ENDCHAR
STARTCHAR C011e
ENCODING 286
SWIDTH 666 0
DWIDTH 8 0
BBX 8 16 0 -4
BITMAP
18
18
18
18
18
18
18
1f
1f
08
08
08
08
08
08
08
ENDCHAR
STARTCHAR C011f
ENCODING 287
SWIDTH 666 0
DWIDTH 8 0
BBX 8 16 0 -4
BITMAP
08
08
08
08
08
08
08
1f
1f
18
18
18
18
18
18
18
ENDCHAR
STARTCHAR C0120
ENCODING 288
SWIDTH 666 0
DWIDTH 8 0
BBX 8 16 0 -4
BITMAP
18
18
18
18
18
18
18
1f
1f
18
18
18
18
18
18
18
ENDCHAR
STARTCHAR C0121
ENCODING 289
SWIDTH 666 0
DWIDTH 8 0
BBX 8 16 0 -4
BITMAP
08
08
08
08
08
08
08
f8
f8
08
08
08
08
08
08
08
ENDCHAR
STARTCHAR C0122
ENCODING 290
SWIDTH 666 0
DWIDTH 8 0
BBX 8 16 0 -4
BITMAP
18
18
18
18
18
18
18
f8
08
08
08
08
08
08
08
08
ENDCHAR
STARTCHAR C0123
ENCODING 291
SWIDTH 666 0
DWIDTH 8 0
BBX 8 16 0 -4
BITMAP
08
08
08
08
08
08
08
f8
18
18
18
18
18
18
18
18
ENDCHAR
STARTCHAR C0124
ENCODING 292
SWIDTH 666 0
DWIDTH 8 0
BBX 8 16 0 -4
BITMAP
18
18
18
18
18
18
18
f8
18
18
18
18
18
18
18
18
ENDCHAR
STARTCHAR C0125
ENCODING 293
SWIDTH 666 0
DWIDTH 8 0
BBX 8 16 0 -4
BITMAP
18
18
18
18
18
18
18
f8
f8
08
08
08
08
08
08
08
ENDCHAR
STARTCHAR C0126
ENCODING 294
SWIDTH 666 0
DWIDTH 8 0
BBX 8 16 0 -4
BITMAP
08
08
08
08
08
08
08
f8
f8
18
18
18
18
18
18
18
ENDCHAR
STARTCHAR C0127
ENCODING 295
SWIDTH 666 0
DWIDTH 8 0
BBX 8 16 0 -4
BITMAP
18
18
18
18
18
18
18
f8
f8
18
18
18
18
18
18
18
ENDCHAR
STARTCHAR C0128
ENCODING 296
SWIDTH 666 0
DWIDTH 8 0
BBX 8 16 0 -4
BITMAP
00
00
00
00
00
00
00
ff
f8
08
08
08
08
08
08
08
ENDCHAR
STARTCHAR C0129
ENCODING 297
SWIDTH 666 0
DWIDTH 8 0
BBX 8 16 0 -4
BITMAP
00
00
00
00
00
00
00
ff
0f
08
08
08
08
08
08
08
ENDCHAR
STARTCHAR C012a
ENCODING 298
SWIDTH 666 0
DWIDTH 8 0
BBX 8 16 0 -4
BITMAP
00
00
00
00
00
00
00
ff
ff
08
08
08
08
08
08
08
ENDCHAR
STARTCHAR C012b
ENCODING 299
SWIDTH 666 0
DWIDTH 8 0
BBX 8 16 0 -4
BITMAP
00
00
00
00
00
00
00
ff
18
18
18
18
18
18
18
18
ENDCHAR
STARTCHAR C012c
ENCODING 300
SWIDTH 666 0
DWIDTH 8 0
BBX 8 16 0 -4
BITMAP
00
00
00
00
00
00
00
ff
f8
18
18
18
18
18
18
18
ENDCHAR
STARTCHAR C012d
ENCODING 301
SWIDTH 666 0
DWIDTH 8 0
BBX 8 16 0 -4
BITMAP
00
00
00
00
00
00
00
ff
1f
18
18
18
18
18
18
18
ENDCHAR
STARTCHAR C012e
ENCODING 302
SWIDTH 666 0
DWIDTH 8 0
BBX 8 16 0 -4
BITMAP
00
00
00
00
00
00
00
ff
ff
18
18
18
18
18
18
18
ENDCHAR
STARTCHAR C012f
ENCODING 303
SWIDTH 666 0
DWIDTH 8 0
BBX 8 16 0 -4
BITMAP
08
08
08
08
08
08
08
ff
f8
00
00
00
00
00
00
00
ENDCHAR
STARTCHAR C0130
ENCODING 304
SWIDTH 666 0
DWIDTH 8 0
BBX 8 16 0 -4
BITMAP
08
08
08
08
08
08
08
ff
0f
00
00
00
00
00
00
00
ENDCHAR
STARTCHAR C0131
ENCODING 305
SWIDTH 666 0
DWIDTH 8 0
BBX 8 16 0 -4
BITMAP
08
08
08
08
08
08
08
ff
ff
00
00
00
00
00
00
00
ENDCHAR
STARTCHAR C0132
ENCODING 306
SWIDTH 666 0
DWIDTH 8 0
BBX 8 16 0 -4
BITMAP
18
18
18
18
18
18
18
ff
00
00
00
00
00
00
00
00
ENDCHAR
STARTCHAR C0133
ENCODING 307
SWIDTH 666 0
DWIDTH 8 0
BBX 8 16 0 -4
BITMAP
18
18
18
18
18
18
18
ff
f8
00
00
00
00
00
00
00
ENDCHAR
STARTCHAR C0134
ENCODING 308
SWIDTH 666 0
DWIDTH 8 0
BBX 8 16 0 -4
BITMAP
18
18
18
18
18
18
18
ff
1f
00
00
00
00
00
00
00
ENDCHAR
STARTCHAR C0135
ENCODING 309
SWIDTH 666 0
DWIDTH 8 0
BBX 8 16 0 -4
BITMAP
18
18
18
18
18
18
18
ff
ff
00
00
00
00
00
00
00
ENDCHAR
STARTCHAR C0136
ENCODING 310
SWIDTH 666 0
DWIDTH 8 0
BBX 8 16 0 -4
BITMAP
08
08
08
08
08
08
08
ff
f8
08
08
08
08
08
08
08
ENDCHAR
STARTCHAR C0137
ENCODING 311
SWIDTH 666 0
DWIDTH 8 0
BBX 8 16 0 -4
BITMAP
08
08
08
08
08
08
08
ff
0f
08
08
08
08
08
08
08
ENDCHAR
STARTCHAR C0138
ENCODING 312
SWIDTH 666 0
DWIDTH 8 0
BBX 8 16 0 -4
BITMAP
08
08
08
08
08
08
08
ff
ff
08
08
08
08
08
08
08
ENDCHAR
STARTCHAR C0139
ENCODING 313
SWIDTH 666 0
DWIDTH 8 0
BBX 8 16 0 -4
BITMAP
18
18
18
18
18
18
18
ff
08
08
08
08
08
08
08
08
ENDCHAR
STARTCHAR C013a
ENCODING 314
SWIDTH 666 0
DWIDTH 8 0
BBX 8 16 0 -4
BITMAP
08
08
08
08
08
08
08
ff
18
18
18
18
18
18
18
18
ENDCHAR
STARTCHAR C013b
ENCODING 315
SWIDTH 666 0
DWIDTH 8 0
BBX 8 16 0 -4
BITMAP
18
18
18
18
18
18
18
ff
18
18
18
18
18
18
18
18
ENDCHAR
STARTCHAR C013c
ENCODING 316
SWIDTH 666 0
DWIDTH 8 0
BBX 8 16 0 -4
BITMAP
18
18
18
18
18
18
18
ff
ff
08
08
08
08
08
08
08
ENDCHAR
STARTCHAR C013d
ENCODING 317
SWIDTH 666 0
DWIDTH 8 0
BBX 8 16 0 -4
BITMAP
18
18
18
18
18
18
18
ff
1f
08
08
08
08
08
08
08
ENDCHAR
STARTCHAR C013e
ENCODING 318
SWIDTH 666 0
DWIDTH 8 0
BBX 8 16 0 -4
BITMAP
08
08
08
08
08
08
08
ff
f8
18
18
18
18
18
18
18
ENDCHAR
STARTCHAR C013f
ENCODING 319
SWIDTH 666 0
DWIDTH 8 0
BBX 8 16 0 -4
BITMAP
08
08
08
08
08
08
08
ff
1f
18
18
18
18
18
18
18
ENDCHAR
STARTCHAR C0140
ENCODING 320
SWIDTH 666 0
DWIDTH 8 0
BBX 8 16 0 -4
BITMAP
18
18
18
18
18
18
18
ff
ff
08
08
08
08
08
08
08
ENDCHAR
STARTCHAR C0141
ENCODING 321
SWIDTH 666 0
DWIDTH 8 0
BBX 8 16 0 -4
BITMAP
08
08
08
08
08
08
08
ff
ff
18
18
18
18
18
18
18
ENDCHAR
STARTCHAR C0142
ENCODING 322
SWIDTH 666 0
DWIDTH 8 0
BBX 8 16 0 -4
BITMAP
18
18
18
18
18
18
18
ff
f8
18
18
18
18
18
18
18
ENDCHAR
STARTCHAR C0143
ENCODING 323
SWIDTH 666 0
DWIDTH 8 0
BBX 8 16 0 -4
BITMAP
18
18
18
18
18
18
18
ff
1f
18
18
18
18
18
18
18
ENDCHAR
STARTCHAR C0144
ENCODING 324
SWIDTH 666 0
DWIDTH 8 0
BBX 8 16 0 -4
BITMAP
18
18
18
18
18
18
18
ff
ff
18
18
18
18
18
18
18
ENDCHAR
STARTCHAR C0145
ENCODING 325
SWIDTH 666 0
DWIDTH 8 0
BBX 8 16 0 -4
BITMAP
00
00
00
00
00
00
00
ee
00
00
00
00
00
00
00
00
ENDCHAR
STARTCHAR C0146
ENCODING 326
SWIDTH 666 0
DWIDTH 8 0
BBX 8 16 0 -4
BITMAP
00
00
00
00
00
00
00
ee
ee
00
00
00
00
00
00
00
ENDCHAR
STARTCHAR C0147
ENCODING 327
SWIDTH 666 0
DWIDTH 8 0
BBX 8 16 0 -4
BITMAP
08
08
08
08
08
08
00
00
08
08
08
08
08
08
00
00
ENDCHAR
STARTCHAR C0148
ENCODING 328
SWIDTH 666 0
DWIDTH 8 0
BBX 8 16 0 -4
BITMAP
18
18
18
18
18
18
00
00
18
18
18
18
18
18
00
00
ENDCHAR
STARTCHAR C0149
ENCODING 329
SWIDTH 666 0
DWIDTH 8 0
BBX 8 16 0 -4
BITMAP
00
00
00
00
00
00
00
03
04
08
08
08
08
08
08
08
ENDCHAR
STARTCHAR C014a
ENCODING 330
SWIDTH 666 0
DWIDTH 8 0
BBX 8 16 0 -4
BITMAP
00
00
00
00
00
00
00
e0
10
08
08
08
08
08
08
08
ENDCHAR
STARTCHAR C014b
ENCODING 331
SWIDTH 666 0
DWIDTH 8 0
BBX 8 16 0 -4
BITMAP
08
08
08
08
08
08
10
e0
00
00
00
00
00
00
00
00
ENDCHAR
STARTCHAR C014c
ENCODING 332
SWIDTH 666 0
DWIDTH 8 0
BBX 8 16 0 -4
BITMAP
08
08
08
08
08
08
04
03
00
00
00
00
00
00
00
00
ENDCHAR
STARTCHAR C014d
ENCODING 333
SWIDTH 666 0
DWIDTH 8 0
BBX 8 16 0 -4
BITMAP
01
01
02
02
04
04
08
08
10
10
20
20
40
40
80
80
ENDCHAR
STARTCHAR C014e
ENCODING 334
SWIDTH 666 0
DWIDTH 8 0
BBX 8 16 0 -4
BITMAP
80
80
40
40
20
20
10
10
08
08
04
04
02
02
01
01
ENDCHAR
STARTCHAR C014f
ENCODING 335
SWIDTH 666 0
DWIDTH 8 0
BBX 8 16 0 -4
BITMAP
81
81
42
42
24
24
18
18
18
18
24
24
42
42
81
81
ENDCHAR
STARTCHAR C0150
ENCODING 336
SWIDTH 666 0
DWIDTH 8 0
BBX 8 16 0 -4
BITMAP
00
00
00
00
00
00
00
f0
00
00
00
00
00
00
00
00
ENDCHAR
STARTCHAR C0151
ENCODING 337
SWIDTH 666 0
DWIDTH 8 0
BBX 8 16 0 -4
BITMAP
08
08
08
08
08
08
08
08
00
00
00
00
00
00
00
00
ENDCHAR
STARTCHAR C0152
ENCODING 338
SWIDTH 666 0
DWIDTH 8 0
BBX 8 16 0 -4
BITMAP
00
00
00
00
00
00
00
0f
00
00
00
00
00
00
00
00
ENDCHAR
STARTCHAR C0153
ENCODING 339
SWIDTH 666 0
DWIDTH 8 0
BBX 8 16 0 -4
BITMAP
00
00
00
00
00
00
00
00
08
08
08
08
08
08
08
08
ENDCHAR
STARTCHAR C0154
ENCODING 340
SWIDTH 666 0
DWIDTH 8 0
BBX 8 16 0 -4
BITMAP
00
00
00
00
00
00
00
f0
f0
00
00
00
00
00
00
00
ENDCHAR
STARTCHAR C0155
ENCODING 341
SWIDTH 666 0
DWIDTH 8 0
BBX 8 16 0 -4
BITMAP
18
18
18
18
18
18
18
18
00
00
00
00
00
00
00
00
ENDCHAR
STARTCHAR C0156
ENCODING 342
SWIDTH 666 0
DWIDTH 8 0
BBX 8 16 0 -4
BITMAP
00
00
00
00
00
00
00
0f
0f
00
00
00
00
00
00
00
ENDCHAR
STARTCHAR C0157
ENCODING 343
SWIDTH 666 0
DWIDTH 8 0
BBX 8 16 0 -4
BITMAP
00
00
00
00
00
00
00
00
18
18
18
18
18
18
18
18
ENDCHAR
STARTCHAR C0158
ENCODING 344
SWIDTH 666 0
DWIDTH 8 0
BBX 8 16 0 -4
BITMAP
00
00
00
00
00
00
00
ff
0f
00
00
00
00
00
00
00
ENDCHAR
STARTCHAR C0159
ENCODING 345
SWIDTH 666 0
DWIDTH 8 0
BBX 8 16 0 -4
BITMAP
08
08
08
08
08
08
08
08
18
18
18
18
18
18
18
18
ENDCHAR
STARTCHAR C015a
ENCODING 346
SWIDTH 666 0
DWIDTH 8 0
BBX 8 16 0 -4
BITMAP
00
00
00
00
00
00
00
ff
f0
00
00
00
00
00
00
00
ENDCHAR
STARTCHAR C015b
ENCODING 347
SWIDTH 666 0
DWIDTH 8 0
BBX 8 16 0 -4
BITMAP
18
18
18
18
18
18
18
18
08
08
08
08
08
08
08
08
ENDCHAR
STARTCHAR C015c
ENCODING 348
SWIDTH 666 0
DWIDTH 8 0
BBX 8 16 0 -4
BITMAP
00
00
00
00
00
00
00
00
00
00
00
00
00
00
ff
ff
ENDCHAR
STARTCHAR C015d
ENCODING 349
SWIDTH 666 0
DWIDTH 8 0
BBX 8 16 0 -4
BITMAP
00
00
00
00
00
00
00
00
00
00
00
00
ff
ff
ff
ff
ENDCHAR
STARTCHAR C015e
ENCODING 350
SWIDTH 666 0
DWIDTH 8 0
BBX 8 16 0 -4
BITMAP
00
00
00
00
00
00
00
00
00
00
ff
ff
ff
ff
ff
ff
ENDCHAR
STARTCHAR C015f
ENCODING 351
SWIDTH 666 0
DWIDTH 8 0
BBX 8 16 0 -4
BITMAP
00
00
00
00
00
00
ff
ff
ff
ff
ff
ff
ff
ff
ff
ff
ENDCHAR
STARTCHAR C0160
ENCODING 352
SWIDTH 666 0
DWIDTH 8 0
BBX 8 16 0 -4
BITMAP
00
00
00
00
ff
ff
ff
ff
ff
ff
ff
ff
ff
ff
ff
ff
ENDCHAR
STARTCHAR C0161
ENCODING 353
SWIDTH 666 0
DWIDTH 8 0
BBX 8 16 0 -4
BITMAP
00
00
ff
ff
ff
ff
ff
ff
ff
ff
ff
ff
ff
ff
ff
ff
ENDCHAR
STARTCHAR C0162
ENCODING 354
SWIDTH 666 0
DWIDTH 8 0
BBX 8 16 0 -4
BITMAP
fe
fe
fe
fe
fe
fe
fe
fe
fe
fe
fe
fe
fe
fe
fe
fe
ENDCHAR
STARTCHAR C0163
ENCODING 355
SWIDTH 666 0
DWIDTH 8 0
BBX 8 16 0 -4
BITMAP
fc
fc
fc
fc
fc
fc
fc
fc
fc
fc
fc
fc
fc
fc
fc
fc
ENDCHAR
STARTCHAR C0164
ENCODING 356
SWIDTH 666 0
DWIDTH 8 0
BBX 8 16 0 -4
BITMAP
f8
f8
f8
f8
f8
f8
f8
f8
f8
f8
f8
f8
f8
f8
f8
f8
ENDCHAR
STARTCHAR C0165
ENCODING 357
SWIDTH 666 0
DWIDTH 8 0
BBX 8 16 0 -4
BITMAP
e0
e0
e0
e0
e0
e0
e0
e0
e0
e0
e0
e0
e0
e0
e0
e0
ENDCHAR
STARTCHAR C0166
ENCODING 358
SWIDTH 666 0
DWIDTH 8 0
BBX 8 16 0 -4
BITMAP
c0
c0
c0
c0
c0
c0
c0
c0
c0
c0
c0
c0
c0
c0
c0
c0
ENDCHAR
STARTCHAR C0167
ENCODING 359
SWIDTH 666 0
DWIDTH 8 0
BBX 8 16 0 -4
BITMAP
80
80
80
80
80
80
80
80
80
80
80
80
80
80
80
80
ENDCHAR
STARTCHAR C0168
ENCODING 360
SWIDTH 666 0
DWIDTH 8 0
BBX 8 16 0 -4
BITMAP
ff
ff
00
00
00
00
00
00
00
00
00
00
00
00
00
00
ENDCHAR
STARTCHAR C0169
ENCODING 361
SWIDTH 666 0
DWIDTH 8 0
BBX 8 16 0 -4
BITMAP
01
01
01
01
01
01
01
01
01
01
01
01
01
01
01
01
ENDCHAR
STARTCHAR C016a
ENCODING 362
SWIDTH 666 0
DWIDTH 8 0
BBX 8 16 0 -4
BITMAP
00
00
00
00
00
00
00
00
f0
f0
f0
f0
f0
f0
f0
f0
ENDCHAR
STARTCHAR C016b
ENCODING 363
SWIDTH 666 0
DWIDTH 8 0
BBX 8 16 0 -4
BITMAP
00
00
00
00
00
00
00
00
0f
0f
0f
0f
0f
0f
0f
0f
ENDCHAR
STARTCHAR C016c
ENCODING 364
SWIDTH 666 0
DWIDTH 8 0
BBX 8 16 0 -4
BITMAP
f0
f0
f0
f0
f0
f0
f0
f0
00
00
00
00
00
00
00
00
ENDCHAR
STARTCHAR C016d
ENCODING 365
SWIDTH 666 0
DWIDTH 8 0
BBX 8 16 0 -4
BITMAP
f0
f0
f0
f0
f0
f0
f0
f0
ff
ff
ff
ff
ff
ff
ff
ff
ENDCHAR
STARTCHAR C016e
ENCODING 366
SWIDTH 666 0
DWIDTH 8 0
BBX 8 16 0 -4
BITMAP
f0
f0
f0
f0
f0
f0
f0
f0
0f
0f
0f
0f
0f
0f
0f
0f
ENDCHAR
STARTCHAR C016f
ENCODING 367
SWIDTH 666 0
DWIDTH 8 0
BBX 8 16 0 -4
BITMAP
ff
ff
ff
ff
ff
ff
ff
ff
f0
f0
f0
f0
f0
f0
f0
f0
ENDCHAR
STARTCHAR C0170
ENCODING 368
SWIDTH 666 0
DWIDTH 8 0
BBX 8 16 0 -4
BITMAP
ff
ff
ff
ff
ff
ff
ff
ff
0f
0f
0f
0f
0f
0f
0f
0f
ENDCHAR
STARTCHAR C0171
ENCODING 369
SWIDTH 666 0
DWIDTH 8 0
BBX 8 16 0 -4
BITMAP
0f
0f
0f
0f
0f
0f
0f
0f
00
00
00
00
00
00
00
00
ENDCHAR
STARTCHAR C0172
ENCODING 370
SWIDTH 666 0
DWIDTH 8 0
BBX 8 16 0 -4
BITMAP
0f
0f
0f
0f
0f
0f
0f
0f
f0
f0
f0
f0
f0
f0
f0
f0
ENDCHAR
STARTCHAR C0173
ENCODING 371
SWIDTH 666 0
DWIDTH 8 0
BBX 8 16 0 -4
BITMAP
0f
0f
0f
0f
0f
0f
0f
0f
ff
ff
ff
ff
ff
ff
ff
ff
ENDCHAR
STARTCHAR C0174
ENCODING 372
SWIDTH 666 0
DWIDTH 8 0
BBX 8 16 0 -4
BITMAP
00
00
00
00
20
20
10
10
08
18
24
24
42
42
00
00
ENDCHAR
STARTCHAR C0175
ENCODING 373
SWIDTH 666 0
DWIDTH 8 0
BBX 8 16 0 -4
BITMAP
00
00
00
00
00
00
42
42
24
24
18
18
24
24
42
42
ENDCHAR
STARTCHAR C0176
ENCODING 374
SWIDTH 666 0
DWIDTH 8 0
BBX 8 16 0 -4
BITMAP
00
00
00
00
00
00
42
42
42
42
66
66
5a
42
40
40
ENDCHAR
STARTCHAR C0177
ENCODING 375
SWIDTH 666 0
DWIDTH 8 0
BBX 8 16 0 -4
BITMAP
00
00
00
00
00
00
22
41
41
49
49
49
49
36
00
00
ENDCHAR
STARTCHAR C0178
ENCODING 376
SWIDTH 666 0
DWIDTH 8 0
BBX 8 16 0 -4
BITMAP
00
00
1c
22
22
22
22
22
1c
00
00
00
00
00
00
00
ENDCHAR
STARTCHAR C0179
ENCODING 377
SWIDTH 666 0
DWIDTH 8 0
BBX 8 16 0 -4
BITMAP
00
00
04
0c
14
24
3e
04
04
00
00
00
00
00
00
00
ENDCHAR
STARTCHAR C017a
ENCODING 378
SWIDTH 666 0
DWIDTH 8 0
BBX 8 16 0 -4
BITMAP
00
00
3e
20
20
3c
02
02
3c
00
00
00
00
00
00
00
ENDCHAR
STARTCHAR C017b
ENCODING 379
SWIDTH 666 0
DWIDTH 8 0
BBX 8 16 0 -4
BITMAP
00
00
1c
22
20
3c
22
22
1c
00
00
00
00
00
00
00
ENDCHAR
STARTCHAR C017c
ENCODING 380
SWIDTH 666 0
DWIDTH 8 0
BBX 8 16 0 -4
BITMAP
00
00
3e
02
02
04
08
08
08
00
00
00
00
00
00
00
ENDCHAR
STARTCHAR C017d
ENCODING 381
SWIDTH 666 0
DWIDTH 8 0
BBX 8 16 0 -4
BITMAP
00
00
1c
22
22
1c
22
22
1c
00
00
00
00
00
00
00
ENDCHAR
STARTCHAR C017e
ENCODING 382
SWIDTH 666 0
DWIDTH 8 0
BBX 8 16 0 -4
BITMAP
00
00
1c
22
22
1e
02
22
1c
00
00
00
00
00
00
00
ENDCHAR
STARTCHAR C017f
ENCODING 383
SWIDTH 666 0
DWIDTH 8 0
BBX 8 16 0 -4
BITMAP
00
00
00
00
00
00
00
00
00
1c
22
22
22
22
22
1c
ENDCHAR
STARTCHAR C0180
ENCODING 384
SWIDTH 666 0
DWIDTH 8 0
BBX 8 16 0 -4
BITMAP
00
00
00
00
00
00
00
00
00
08
18
28
08
08
08
08
ENDCHAR
STARTCHAR C0181
ENCODING 385
SWIDTH 666 0
DWIDTH 8 0
BBX 8 16 0 -4
BITMAP
00
00
00
00
00
00
00
00
00
1c
22
02
1c
20
20
3e
ENDCHAR
STARTCHAR C0182
ENCODING 386
SWIDTH 666 0
DWIDTH 8 0
BBX 8 16 0 -4
BITMAP
00
00
00
00
00
00
00
00
00
1c
22
02
1c
02
22
1c
ENDCHAR
STARTCHAR C0183
ENCODING 387
SWIDTH 666 0
DWIDTH 8 0
BBX 8 16 0 -4
BITMAP
00
00
00
00
00
00
00
00
00
04
0c
14
24
3e
04
04
ENDCHAR
STARTCHAR C0184
ENCODING 388
SWIDTH 666 0
DWIDTH 8 0
BBX 8 16 0 -4
BITMAP
00
00
00
00
00
00
00
00
00
3e
20
20
3c
02
02
3c
ENDCHAR
STARTCHAR C0185
ENCODING 389
SWIDTH 666 0
DWIDTH 8 0
BBX 8 16 0 -4
BITMAP
00
00
00
00
00
00
00
00
00
1c
22
20
3c
22
22
1c
ENDCHAR
STARTCHAR C0186
ENCODING 390
SWIDTH 666 0
DWIDTH 8 0
BBX 8 16 0 -4
BITMAP
00
00
00
00
00
00
00
00
00
3e
02
02
04
08
08
08
ENDCHAR
STARTCHAR C0187
ENCODING 391
SWIDTH 666 0
DWIDTH 8 0
BBX 8 16 0 -4
BITMAP
00
00
00
00
00
00
00
00
00
1c
22
22
1c
22
22
1c
ENDCHAR
STARTCHAR C0188
ENCODING 392
SWIDTH 666 0
DWIDTH 8 0
BBX 8 16 0 -4
BITMAP
00
00
00
00
00
00
00
00
00
1c
22
22
1e
02
22
1c
ENDCHAR
STARTCHAR C0189
ENCODING 393
SWIDTH 666 0
DWIDTH 8 0
BBX 8 16 0 -4
BITMAP
00
00
00
08
04
7e
04
08
00
10
20
7e
20
10
00
00
ENDCHAR
STARTCHAR C018a
ENCODING 394
SWIDTH 666 0
DWIDTH 8 0
BBX 8 16 0 -4
BITMAP
00
00
00
00
00
08
0c
fa
81
fa
0c
08
00
00
00
00
ENDCHAR
STARTCHAR C018b
ENCODING 395
SWIDTH 666 0
DWIDTH 8 0
BBX 8 16 0 -4
BITMAP
00
00
00
00
08
08
14
14
14
22
22
22
41
7f
00
00
ENDCHAR
STARTCHAR C018c
ENCODING 396
SWIDTH 666 0
DWIDTH 8 0
BBX 8 16 0 -4
BITMAP
00
00
00
00
7f
41
22
22
22
14
14
14
08
08
00
00
ENDCHAR
STARTCHAR C018d
ENCODING 397
SWIDTH 666 0
DWIDTH 8 0
BBX 8 16 0 -4
BITMAP
00
00
00
00
00
00
00
3e
40
40
7e
40
40
3e
00
00
ENDCHAR
STARTCHAR C018e
ENCODING 398
SWIDTH 666 0
DWIDTH 8 0
BBX 8 16 0 -4
BITMAP
00
00
00
00
00
00
00
00
18
24
24
18
00
00
00
00
ENDCHAR
STARTCHAR C018f
ENCODING 399
SWIDTH 666 0
DWIDTH 8 0
BBX 8 16 0 -4
BITMAP
00
00
00
00
18
18
18
18
18
18
18
18
18
18
00
00
ENDCHAR
STARTCHAR C0190
ENCODING 400
SWIDTH 666 0
DWIDTH 8 0
BBX 8 16 0 -4
BITMAP
00
00
00
00
00
00
41
41
22
22
14
14
08
08
00
00
ENDCHAR
STARTCHAR C0191
ENCODING 401
SWIDTH 666 0
DWIDTH 8 0
BBX 8 16 0 -4
BITMAP
00
00
00
00
00
00
42
42
42
42
42
42
42
3c
00
00
ENDCHAR
STARTCHAR C0192
ENCODING 402
SWIDTH 666 0
DWIDTH 8 0
BBX 8 16 0 -4
BITMAP
00
00
00
00
00
00
66
66
00
00
00
18
18
00
00
00
ENDCHAR
STARTCHAR C0193
ENCODING 403
SWIDTH 666 0
DWIDTH 8 0
BBX 8 16 0 -4
BITMAP
00
00
00
00
00
00
00
00
32
4c
00
00
00
00
00
00
ENDCHAR
STARTCHAR C0194
ENCODING 404
SWIDTH 666 0
DWIDTH 8 0
BBX 8 16 0 -4
BITMAP
00
00
00
00
00
00
02
04
7e
08
10
7e
20
40
00
00
ENDCHAR
STARTCHAR C0195
ENCODING 405
SWIDTH 666 0
DWIDTH 8 0
BBX 8 16 0 -4
BITMAP
00
00
00
00
24
18
18
24
24
24
24
18
18
24
00
00
ENDCHAR
STARTCHAR C0196
ENCODING 406
SWIDTH 666 0
DWIDTH 8 0
BBX 8 16 0 -4
BITMAP
00
00
00
00
00
00
3e
40
40
40
40
3e
00
00
00
00
ENDCHAR
STARTCHAR C0197
ENCODING 407
SWIDTH 666 0
DWIDTH 8 0
BBX 8 16 0 -4
BITMAP
00
00
00
00
00
00
7c
02
02
02
02
7c
00
00
00
00
ENDCHAR
STARTCHAR C0198
ENCODING 408
SWIDTH 666 0
DWIDTH 8 0
BBX 8 16 0 -4
BITMAP
00
00
00
00
00
00
1c
22
41
7f
41
22
1c
00
00
00
ENDCHAR
STARTCHAR C0199
ENCODING 409
SWIDTH 666 0
DWIDTH 8 0
BBX 8 16 0 -4
BITMAP
00
00
00
00
00
00
40
40
40
7e
40
40
40
00
00
00
ENDCHAR
STARTCHAR C019a
ENCODING 410
SWIDTH 666 0
DWIDTH 8 0
BBX 8 16 0 -4
BITMAP
00
00
00
00
00
00
02
02
02
7e
02
02
02
00
00
00
ENDCHAR
STARTCHAR C019b
ENCODING 411
SWIDTH 666 0
DWIDTH 8 0
BBX 8 16 0 -4
BITMAP
00
00
00
00
00
00
7f
08
08
08
08
08
08
00
00
00
ENDCHAR
STARTCHAR C019c
ENCODING 412
SWIDTH 666 0
DWIDTH 8 0
BBX 8 16 0 -4
BITMAP
00
00
00
00
00
00
08
08
08
08
08
08
7f
00
00
00
ENDCHAR
STARTCHAR C019d
ENCODING 413
SWIDTH 666 0
DWIDTH 8 0
BBX 8 16 0 -4
BITMAP
00
00
00
00
00
00
00
08
3e
1c
14
00
00
00
00
00
ENDCHAR
STARTCHAR C019e
ENCODING 414
SWIDTH 666 0
DWIDTH 8 0
BBX 8 16 0 -4
BITMAP
00
00
1e
10
10
10
10
10
10
10
10
10
10
10
00
00
ENDCHAR
STARTCHAR C019f
ENCODING 415
SWIDTH 666 0
DWIDTH 8 0
BBX 8 16 0 -4
BITMAP
00
00
10
10
10
10
10
10
10
10
10
10
10
1e
00
00
ENDCHAR
STARTCHAR C01a0
ENCODING 416
SWIDTH 666 0
DWIDTH 8 0
BBX 8 16 0 -4
BITMAP
00
00
00
00
7f
08
08
08
08
08
08
08
08
7f
00
00
ENDCHAR
STARTCHAR C01a1
ENCODING 417
SWIDTH 666 0
DWIDTH 8 0
BBX 8 16 0 -4
BITMAP
00
00
00
00
3e
22
22
22
22
22
22
22
22
3e
00
00
ENDCHAR
STARTCHAR C01a2
ENCODING 418
SWIDTH 666 0
DWIDTH 8 0
BBX 8 16 0 -4
BITMAP
00
00
00
7f
41
41
41
7f
41
41
7f
41
41
7f
00
00
ENDCHAR
STARTCHAR C01a3
ENCODING 419
SWIDTH 666 0
DWIDTH 8 0
BBX 8 16 0 -4
BITMAP
00
00
00
7f
41
49
49
41
7f
41
49
49
41
7f
00
00
ENDCHAR
STARTCHAR C01a4
ENCODING 420
SWIDTH 666 0
DWIDTH 8 0
BBX 8 16 0 -4
BITMAP
00
00
00
7f
41
49
55
63
41
63
55
49
41
7f
00
00
ENDCHAR
STARTCHAR C01a5
ENCODING 421
SWIDTH 666 0
DWIDTH 8 0
BBX 8 16 0 -4
BITMAP
00
00
00
7f
41
41
41
49
55
55
49
41
41
7f
00
00
ENDCHAR
STARTCHAR C01a6
ENCODING 422
SWIDTH 666 0
DWIDTH 8 0
BBX 8 16 0 -4
BITMAP
00
00
00
7f
41
41
5d
63
41
41
63
5d
41
7f
00
00
ENDCHAR
STARTCHAR C01a7
ENCODING 423
SWIDTH 666 0
DWIDTH 8 0
BBX 8 16 0 -4
BITMAP
00
00
00
08
08
1c
2a
49
49
49
2a
1c
08
08
00
00
ENDCHAR
STARTCHAR C01a8
ENCODING 424
SWIDTH 666 0
DWIDTH 8 0
BBX 8 16 0 -4
BITMAP
00
00
00
00
00
1c
22
49
55
49
22
1c
00
00
00
00
ENDCHAR
STARTCHAR C01a9
ENCODING 425
SWIDTH 666 0
DWIDTH 8 0
BBX 8 16 0 -4
BITMAP
00
00
00
00
02
04
04
08
08
ff
10
20
20
40
00
00
ENDCHAR
STARTCHAR C01aa
ENCODING 426
SWIDTH 666 0
DWIDTH 8 0
BBX 8 16 0 -4
BITMAP
00
00
00
00
40
20
20
10
10
ff
08
04
04
02
00
00
ENDCHAR
STARTCHAR C01ab
ENCODING 427
SWIDTH 666 0
DWIDTH 8 0
BBX 8 16 0 -4
BITMAP
00
00
00
7f
41
43
45
45
49
51
51
61
41
7f
00
00
ENDCHAR
STARTCHAR C01ac
ENCODING 428
SWIDTH 666 0
DWIDTH 8 0
BBX 8 16 0 -4
BITMAP
00
00
00
7f
41
61
51
51
49
45
45
43
41
7f
00
00
ENDCHAR
STARTCHAR C01ad
ENCODING 429
SWIDTH 666 0
DWIDTH 8 0
BBX 8 16 0 -4
BITMAP
00
00
00
7f
41
41
47
59
61
59
47
41
41
7f
00
00
ENDCHAR
STARTCHAR C01ae
ENCODING 430
SWIDTH 666 0
DWIDTH 8 0
BBX 8 16 0 -4
BITMAP
00
00
00
7f
41
41
71
4d
43
4d
71
41
41
7f
00
00
ENDCHAR
STARTCHAR C01af
ENCODING 431
SWIDTH 666 0
DWIDTH 8 0
BBX 8 16 0 -4
BITMAP
00
00
00
08
08
08
08
28
7f
28
08
08
08
08
00
00
ENDCHAR
STARTCHAR C01b0
ENCODING 432
SWIDTH 666 0
DWIDTH 8 0
BBX 8 16 0 -4
BITMAP
00
00
00
08
08
08
08
0a
7f
0a
08
08
08
08
00
00
ENDCHAR
STARTCHAR C01b1
ENCODING 433
SWIDTH 666 0
DWIDTH 8 0
BBX 8 16 0 -4
BITMAP
00
00
00
7f
41
41
49
51
7f
51
49
41
41
7f
00
00
ENDCHAR
STARTCHAR C01b2
ENCODING 434
SWIDTH 666 0
DWIDTH 8 0
BBX 8 16 0 -4
BITMAP
00
00
00
7f
41
41
49
45
7f
45
49
41
41
7f
00
00
ENDCHAR
STARTCHAR C01b3
ENCODING 435
SWIDTH 666 0
DWIDTH 8 0
BBX 8 16 0 -4
BITMAP
00
00
00
00
00
00
00
5c
22
51
49
45
22
1d
00
00
ENDCHAR
STARTCHAR C01b4
ENCODING 436
SWIDTH 666 0
DWIDTH 8 0
BBX 8 16 0 -4
BITMAP
00
00
00
00
08
08
08
08
08
08
08
7f
00
7f
00
00
ENDCHAR
STARTCHAR C01b5
ENCODING 437
SWIDTH 666 0
DWIDTH 8 0
BBX 8 16 0 -4
BITMAP
00
00
00
00
08
08
08
1c
1c
2a
2a
3e
08
08
00
00
ENDCHAR
STARTCHAR C01b6
ENCODING 438
SWIDTH 666 0
DWIDTH 8 0
BBX 8 16 0 -4
BITMAP
00
00
7f
41
41
41
41
63
63
55
55
49
41
7f
00
00
ENDCHAR
STARTCHAR C01b7
ENCODING 439
SWIDTH 666 0
DWIDTH 8 0
BBX 8 16 0 -4
BITMAP
00
00
7f
41
41
49
49
55
55
63
63
7f
41
7f
00
00
ENDCHAR
STARTCHAR C01b8
ENCODING 440
SWIDTH 666 0
DWIDTH 8 0
BBX 8 16 0 -4
BITMAP
00
00
00
00
08
08
08
1c
2a
2a
1c
08
08
7f
00
00
ENDCHAR
STARTCHAR C01b9
ENCODING 441
SWIDTH 666 0
DWIDTH 8 0
BBX 8 16 0 -4
BITMAP
00
00
00
00
08
1c
2a
08
7f
08
08
08
08
08
00
00
ENDCHAR
STARTCHAR C01ba
ENCODING 442
SWIDTH 666 0
DWIDTH 8 0
BBX 8 16 0 -4
BITMAP
00
00
7f
49
5d
6b
49
49
49
49
49
49
49
7f
00
00
ENDCHAR
STARTCHAR C01bb
ENCODING 443
SWIDTH 666 0
DWIDTH 8 0
BBX 8 16 0 -4
BITMAP
00
00
00
00
3e
00
3e
08
08
08
08
08
08
08
00
00
ENDCHAR
STARTCHAR C01bc
ENCODING 444
SWIDTH 666 0
DWIDTH 8 0
BBX 8 16 0 -4
BITMAP
00
00
00
00
08
08
3e
2a
2a
1c
1c
08
08
08
00
00
ENDCHAR
STARTCHAR C01bd
ENCODING 445
SWIDTH 666 0
DWIDTH 8 0
BBX 8 16 0 -4
BITMAP
00
00
7f
41
49
55
55
63
63
41
41
41
41
7f
00
00
ENDCHAR
STARTCHAR C01be
ENCODING 446
SWIDTH 666 0
DWIDTH 8 0
BBX 8 16 0 -4
BITMAP
00
00
7f
41
41
7f
63
63
55
55
49
49
41
7f
00
00
ENDCHAR
STARTCHAR C01bf
ENCODING 447
SWIDTH 666 0
DWIDTH 8 0
BBX 8 16 0 -4
BITMAP
00
00
00
00
7f
08
08
1c
2a
2a
1c
08
08
08
00
00
ENDCHAR
STARTCHAR C01c0
ENCODING 448
SWIDTH 666 0
DWIDTH 8 0
BBX 8 16 0 -4
BITMAP
00
00
00
08
08
08
08
08
08
7f
08
2a
1c
08
00
00
ENDCHAR
STARTCHAR C01c1
ENCODING 449
SWIDTH 666 0
DWIDTH 8 0
BBX 8 16 0 -4
BITMAP
00
00
7f
49
49
49
49
49
49
49
6b
5d
49
7f
00
00
ENDCHAR
STARTCHAR C01c2
ENCODING 450
SWIDTH 666 0
DWIDTH 8 0
BBX 8 16 0 -4
BITMAP
00
00
00
00
08
08
08
00
00
00
00
00
00
3e
00
00
ENDCHAR
STARTCHAR C01c3
ENCODING 451
SWIDTH 666 0
DWIDTH 8 0
BBX 8 16 0 -4
BITMAP
00
00
00
00
00
08
08
14
14
22
22
3e
00
3e
00
00
ENDCHAR
STARTCHAR C01c4
ENCODING 452
SWIDTH 666 0
DWIDTH 8 0
BBX 8 16 0 -4
BITMAP
00
00
00
00
00
08
14
22
41
22
14
08
00
3e
00
00
ENDCHAR
STARTCHAR C01c5
ENCODING 453
SWIDTH 666 0
DWIDTH 8 0
BBX 8 16 0 -4
BITMAP
00
00
00
00
00
00
00
18
24
24
18
00
00
3e
00
00
ENDCHAR
STARTCHAR C01c6
ENCODING 454
SWIDTH 666 0
DWIDTH 8 0
BBX 8 16 0 -4
BITMAP
00
00
00
00
00
1c
22
41
41
41
22
1c
00
7f
00
00
ENDCHAR
STARTCHAR C01c7
ENCODING 455
SWIDTH 666 0
DWIDTH 8 0
BBX 8 16 0 -4
BITMAP
00
00
00
00
1c
22
49
55
49
41
41
41
41
41
00
00
ENDCHAR
STARTCHAR C01c8
ENCODING 456
SWIDTH 666 0
DWIDTH 8 0
BBX 8 16 0 -4
BITMAP
00
00
7f
41
49
49
49
41
41
41
41
41
41
7f
00
00
ENDCHAR
STARTCHAR C01c9
ENCODING 457
SWIDTH 666 0
DWIDTH 8 0
BBX 8 16 0 -4
BITMAP
00
00
00
00
1c
22
49
7f
5d
55
22
1c
00
00
00
00
ENDCHAR
STARTCHAR C01ca
ENCODING 458
SWIDTH 666 0
DWIDTH 8 0
BBX 8 16 0 -4
BITMAP
00
00
7f
41
41
49
49
41
41
49
49
41
41
7f
00
00
ENDCHAR
STARTCHAR C01cb
ENCODING 459
SWIDTH 666 0
DWIDTH 8 0
BBX 8 16 0 -4
BITMAP
00
24
24
00
7f
08
08
08
08
08
08
08
08
08
00
00
ENDCHAR
STARTCHAR C01cc
ENCODING 460
SWIDTH 666 0
DWIDTH 8 0
BBX 8 16 0 -4
BITMAP
00
24
24
00
00
3e
22
22
14
14
08
08
00
00
00
00
ENDCHAR
STARTCHAR C01cd
ENCODING 461
SWIDTH 666 0
DWIDTH 8 0
BBX 8 16 0 -4
BITMAP
00
24
24
00
00
08
3e
1c
14
00
00
00
00
00
00
00
ENDCHAR
STARTCHAR C01ce
ENCODING 462
SWIDTH 666 0
DWIDTH 8 0
BBX 8 16 0 -4
BITMAP
00
24
24
00
00
00
00
18
24
24
18
00
00
00
00
00
ENDCHAR
STARTCHAR C01cf
ENCODING 463
SWIDTH 666 0
DWIDTH 8 0
BBX 8 16 0 -4
BITMAP
00
24
24
00
00
00
00
1c
22
41
41
41
22
1c
00
00
ENDCHAR
STARTCHAR C01d0
ENCODING 464
SWIDTH 666 0
DWIDTH 8 0
BBX 8 16 0 -4
BITMAP
00
00
00
00
49
49
49
49
49
49
49
2a
1c
08
00
00
ENDCHAR
STARTCHAR C01d1
ENCODING 465
SWIDTH 666 0
DWIDTH 8 0
BBX 8 16 0 -4
BITMAP
00
00
00
08
08
1f
28
48
48
48
28
1f
08
08
00
00
ENDCHAR
STARTCHAR C01d2
ENCODING 466
SWIDTH 666 0
DWIDTH 8 0
BBX 8 16 0 -4
BITMAP
00
24
24
00
00
00
00
32
4c
00
00
00
00
00
00
00
ENDCHAR
STARTCHAR C01d3
ENCODING 467
SWIDTH 666 0
DWIDTH 8 0
BBX 8 16 0 -4
BITMAP
00
24
24
00
40
20
10
08
04
02
04
08
10
20
40
00
ENDCHAR
STARTCHAR C01d4
ENCODING 468
SWIDTH 666 0
DWIDTH 8 0
BBX 8 16 0 -4
BITMAP
00
00
00
00
3c
00
00
18
08
08
10
00
00
00
00
00
ENDCHAR
STARTCHAR C01d5
ENCODING 469
SWIDTH 666 0
DWIDTH 8 0
BBX 8 16 0 -4
BITMAP
00
00
00
00
00
3e
22
22
14
14
39
4e
00
00
00
00
ENDCHAR
STARTCHAR C01d6
ENCODING 470
SWIDTH 666 0
DWIDTH 8 0
BBX 8 16 0 -4
BITMAP
00
00
00
00
1c
22
22
22
33
6e
22
22
22
1c
00
00
ENDCHAR
STARTCHAR C01d7
ENCODING 471
SWIDTH 666 0
DWIDTH 8 0
BBX 8 16 0 -4
BITMAP
00
00
00
00
08
08
08
08
08
3a
4c
08
08
08
00
00
ENDCHAR
STARTCHAR C01d8
ENCODING 472
SWIDTH 666 0
DWIDTH 8 0
BBX 8 16 0 -4
BITMAP
00
00
00
00
18
18
00
00
18
08
08
10
00
3e
00
00
ENDCHAR
STARTCHAR C01d9
ENCODING 473
SWIDTH 666 0
DWIDTH 8 0
BBX 8 16 0 -4
BITMAP
00
00
7f
41
43
45
7f
49
7f
51
61
41
41
7f
00
00
ENDCHAR
STARTCHAR C01da
ENCODING 474
SWIDTH 666 0
DWIDTH 8 0
BBX 8 16 0 -4
BITMAP
00
00
7f
41
49
55
55
45
49
49
41
49
41
7f
00
00
ENDCHAR
STARTCHAR C01db
ENCODING 475
SWIDTH 666 0
DWIDTH 8 0
BBX 8 16 0 -4
BITMAP
00
00
00
00
32
4c
00
22
22
14
14
08
00
00
00
00
ENDCHAR
STARTCHAR C01dc
ENCODING 476
SWIDTH 666 0
DWIDTH 8 0
BBX 8 16 0 -4
BITMAP
00
00
00
00
00
32
4c
00
08
14
14
22
22
00
00
00
ENDCHAR
STARTCHAR C01dd
ENCODING 477
SWIDTH 666 0
DWIDTH 8 0
BBX 8 16 0 -4
BITMAP
00
00
00
00
00
00
00
18
08
08
08
08
08
06
00
00
ENDCHAR
STARTCHAR C01de
ENCODING 478
SWIDTH 666 0
DWIDTH 8 0
BBX 8 16 0 -4
BITMAP
00
00
00
00
00
00
3c
42
42
42
42
42
62
5c
40
40
ENDCHAR
STARTCHAR C01df
ENCODING 479
SWIDTH 666 0
DWIDTH 8 0
BBX 8 16 0 -4
BITMAP
00
00
00
00
00
00
22
41
41
49
49
49
49
36
00
00
ENDCHAR
STARTCHAR C01e0
ENCODING 480
SWIDTH 666 0
DWIDTH 8 0
BBX 8 16 0 -4
BITMAP
00
00
00
00
00
32
4a
44
44
44
4a
32
00
7e
00
00
ENDCHAR
STARTCHAR C01e1
ENCODING 481
SWIDTH 666 0
DWIDTH 8 0
BBX 8 16 0 -4
BITMAP
00
00
00
00
00
3e
40
40
7c
40
40
3e
00
7e
00
00
ENDCHAR
STARTCHAR C01e2
ENCODING 482
SWIDTH 666 0
DWIDTH 8 0
BBX 8 16 0 -4
BITMAP
00
00
00
00
00
18
08
08
08
08
08
06
00
1e
00
00
ENDCHAR
STARTCHAR C01e3
ENCODING 483
SWIDTH 666 0
DWIDTH 8 0
BBX 8 16 0 -4
BITMAP
00
00
00
00
00
22
41
49
49
49
49
36
00
7f
00
00
ENDCHAR
STARTCHAR C01e4
ENCODING 484
SWIDTH 666 0
DWIDTH 8 0
BBX 8 16 0 -4
BITMAP
00
00
00
00
00
00
08
08
14
14
22
22
41
41
00
00
ENDCHAR
STARTCHAR C01e5
ENCODING 485
SWIDTH 666 0
DWIDTH 8 0
BBX 8 16 0 -4
BITMAP
00
00
00
00
00
3e
00
08
14
14
22
22
00
00
00
00
ENDCHAR
STARTCHAR C01e6
ENCODING 486
SWIDTH 666 0
DWIDTH 8 0
BBX 8 16 0 -4
BITMAP
00
00
00
00
00
3e
00
22
22
14
14
08
00
00
00
00
ENDCHAR
STARTCHAR C01e7
ENCODING 487
SWIDTH 666 0
DWIDTH 8 0
BBX 8 16 0 -4
BITMAP
00
00
00
00
00
00
00
10
28
44
82
44
28
10
00
00
ENDCHAR
STARTCHAR C01e8
ENCODING 488
SWIDTH 666 0
DWIDTH 8 0
BBX 8 16 0 -4
BITMAP
00
00
7f
41
41
41
41
41
41
41
41
41
41
7f
00
00
ENDCHAR
STARTCHAR C01e9
ENCODING 489
SWIDTH 666 0
DWIDTH 8 0
BBX 8 16 0 -4
BITMAP
00
00
00
00
00
00
00
38
44
44
44
38
00
00
00
00
ENDCHAR
STARTCHAR C01ea
ENCODING 490
SWIDTH 666 0
DWIDTH 8 0
BBX 8 16 0 -4
BITMAP
00
00
00
00
37
48
48
48
4e
48
48
48
48
37
00
00
ENDCHAR
STARTCHAR C01eb
ENCODING 491
SWIDTH 666 0
DWIDTH 8 0
BBX 8 16 0 -4
BITMAP
00
00
00
00
00
00
36
49
49
4f
48
48
49
36
00
00
ENDCHAR
STARTCHAR C01ec
ENCODING 492
SWIDTH 666 0
DWIDTH 8 0
BBX 8 16 0 -4
BITMAP
24
24
00
00
41
41
22
22
14
08
08
08
08
08
00
00
ENDCHAR
STARTCHAR C01ed
ENCODING 493
SWIDTH 666 0
DWIDTH 8 0
BBX 8 16 0 -4
BITMAP
00
00
00
00
41
41
3e
22
22
14
14
14
08
08
00
00
ENDCHAR
STARTCHAR C01ee
ENCODING 494
SWIDTH 666 0
DWIDTH 8 0
BBX 8 16 0 -4
BITMAP
00
00
00
00
00
00
00
1d
22
45
49
51
22
5c
00
00
ENDCHAR
STARTCHAR C01ef
ENCODING 495
SWIDTH 666 0
DWIDTH 8 0
BBX 8 16 0 -4
BITMAP
00
00
00
00
00
02
04
7e
08
7e
10
7e
20
40
00
00
ENDCHAR
STARTCHAR C01f0
ENCODING 496
SWIDTH 666 0
DWIDTH 8 0
BBX 8 16 0 -4
BITMAP
00
00
00
00
00
00
3e
40
40
40
40
3e
00
7e
00
00
ENDCHAR
STARTCHAR C01f1
ENCODING 497
SWIDTH 666 0
DWIDTH 8 0
BBX 8 16 0 -4
BITMAP
00
00
00
00
00
00
7c
02
02
02
02
7c
00
7e
00
00
ENDCHAR
STARTCHAR C01f2
ENCODING 498
SWIDTH 666 0
DWIDTH 8 0
BBX 8 16 0 -4
BITMAP
00
00
00
00
00
00
1c
22
41
49
41
22
1c
00
00
00
ENDCHAR
STARTCHAR C01f3
ENCODING 499
SWIDTH 666 0
DWIDTH 8 0
BBX 8 16 0 -4
BITMAP
00
00
08
10
10
18
00
00
00
00
00
00
00
00
00
00
ENDCHAR
STARTCHAR C01f4
ENCODING 500
SWIDTH 666 0
DWIDTH 8 0
BBX 8 16 0 -4
BITMAP
00
00
18
08
08
10
00
00
00
00
00
00
00
00
00
00
ENDCHAR
STARTCHAR C01f5
ENCODING 501
SWIDTH 666 0
DWIDTH 8 0
BBX 8 16 0 -4
BITMAP
00
00
00
00
00
00
00
00
00
00
00
00
18
08
08
10
ENDCHAR
STARTCHAR C01f6
ENCODING 502
SWIDTH 666 0
DWIDTH 8 0
BBX 8 16 0 -4
BITMAP
00
00
22
44
44
66
00
00
00
00
00
00
00
00
00
00
ENDCHAR
STARTCHAR C01f7
ENCODING 503
SWIDTH 666 0
DWIDTH 8 0
BBX 8 16 0 -4
BITMAP
00
00
66
22
22
44
00
00
00
00
00
00
00
00
00
00
ENDCHAR
STARTCHAR C01f8
ENCODING 504
SWIDTH 666 0
DWIDTH 8 0
BBX 8 16 0 -4
BITMAP
00
00
00
00
00
00
00
00
00
00
00
00
66
22
22
44
ENDCHAR
STARTCHAR C01f9
ENCODING 505
SWIDTH 666 0
DWIDTH 8 0
BBX 8 16 0 -4
BITMAP
00
00
08
1c
08
2a
7f
2a
08
1c
08
08
08
08
00
00
ENDCHAR
STARTCHAR C01fa
ENCODING 506
SWIDTH 666 0
DWIDTH 8 0
BBX 8 16 0 -4
BITMAP
00
08
1c
08
2a
7f
2a
08
08
2a
7f
2a
08
1c
08
00
ENDCHAR
STARTCHAR C01fb
ENCODING 507
SWIDTH 666 0
DWIDTH 8 0
BBX 8 16 0 -4
BITMAP
00
00
00
00
00
00
00
00
00
00
00
00
49
49
00
00
ENDCHAR
STARTCHAR C01fc
ENCODING 508
SWIDTH 666 0
DWIDTH 8 0
BBX 8 16 0 -4
BITMAP
00
00
00
00
0c
12
20
7c
20
7c
20
20
12
0c
00
00
ENDCHAR
STARTCHAR C01fd
ENCODING 509
SWIDTH 666 0
DWIDTH 8 0
BBX 8 16 0 -4
BITMAP
00
00
00
00
00
60
78
7e
7e
78
60
00
00
00
00
00
ENDCHAR
STARTCHAR C01fe
ENCODING 510
SWIDTH 666 0
DWIDTH 8 0
BBX 8 16 0 -4
BITMAP
00
00
00
00
00
06
1e
7e
7e
1e
06
00
00
00
00
00
ENDCHAR
STARTCHAR C01ff
ENCODING 511
SWIDTH 666 0
DWIDTH 8 0
BBX 8 16 0 -4
BITMAP
00
00
00
7e
66
5a
5a
7a
76
76
7e
76
76
7e
00
00
ENDCHAR
ENDFONT
